<?xml version="1.0" encoding="utf-8"?>
<!-- Generator: Adobe Illustrator 27.5.0, SVG Export Plug-In . SVG Version: 6.00 Build 0)  -->
<svg version="1.1" id="_x3C_Layer_x3E_" xmlns="http://www.w3.org/2000/svg" xmlns:xlink="http://www.w3.org/1999/xlink" x="0px"
 y="0px" viewBox="0 200 3600 2000" style="enable-background:new 0 0 3600 2000;" xml:space="preserve">	
<g>
	<rect style="fill:#FFFFFF;" width="3600" height="2000"/>
	<g>
		<linearGradient id="SVGID_1_" gradientUnits="userSpaceOnUse" x1="3383.7339" y1="2000" x2="3383.7339" y2="1466.0684">
			<stop  offset="0" style="stop-color:#C5CFFF"/>
			<stop  offset="0.248" style="stop-color:#D3DCFF"/>
			<stop  offset="0.5471" style="stop-color:#DCE4FF"/>
			<stop  offset="1" style="stop-color:#DFE6FF"/>
		</linearGradient>
		<path style="fill:url(#SVGID_1_);" d="M3600,1466.068c0,0-432.532,76.202-432.532,533.932h432.047L3600,1466.068z"/>
		
			<linearGradient id="SVGID_00000115486599426628259340000000238023069080842124_" gradientUnits="userSpaceOnUse" x1="525.1998" y1="2000" x2="525.1998" y2="1591.6334">
			<stop  offset="0" style="stop-color:#C5CFFF"/>
			<stop  offset="0.248" style="stop-color:#D3DCFF"/>
			<stop  offset="0.5471" style="stop-color:#DCE4FF"/>
			<stop  offset="1" style="stop-color:#DFE6FF"/>
		</linearGradient>
		<path style="fill:url(#SVGID_00000115486599426628259340000000238023069080842124_);" d="M0,1591.633V2000h1050.4
			C1050.4,2000,917.816,1591.633,0,1591.633z"/>
		
			<linearGradient id="SVGID_00000047772834332734993500000014493763181600028565_" gradientUnits="userSpaceOnUse" x1="2316.6101" y1="-9.094947e-13" x2="2316.6101" y2="896.0961">
			<stop  offset="0" style="stop-color:#6615B2"/>
			<stop  offset="0.2956" style="stop-color:#8D28C3"/>
			<stop  offset="0.5849" style="stop-color:#AC37D0"/>
			<stop  offset="0.8295" style="stop-color:#BF40D8"/>
			<stop  offset="1" style="stop-color:#C643DB"/>
		</linearGradient>
		<path style="fill:url(#SVGID_00000047772834332734993500000014493763181600028565_);" d="M3600,0v770.285
			c0,0-1990.559,585.68-2566.78-770.285H3600z"/>
		
			<linearGradient id="SVGID_00000067941253572436483690000006849436993982699682_" gradientUnits="userSpaceOnUse" x1="1170.4504" y1="433.4937" x2="1170.4504" y2="9.094947e-13">
			<stop  offset="0" style="stop-color:#F9795A"/>
			<stop  offset="1" style="stop-color:#EB3668"/>
		</linearGradient>
		<path style="fill:url(#SVGID_00000067941253572436483690000006849436993982699682_);" d="M0,343.51
			c0,0,734.333,239.111,1345-62.222s995.901-281,995.901-281L0,0V343.51z"/>
		
		
	</g>
</g>
<g>
	<g>
		<g>
			<path style="fill:#FFFFFF;" d="M1671.459,833.814c19.093,0,34.57,15.478,34.57,34.571c0,19.092-15.477,34.569-34.57,34.569
				c-19.092,0-34.57-15.477-34.57-34.569C1636.888,849.292,1652.366,833.814,1671.459,833.814z"/>
			<g>
				<g>
					
						<rect x="2023.487" y="972.936" transform="matrix(-1 -1.224647e-16 1.224647e-16 -1 4202.3193 2701.2932)" style="fill:#B1C9F6;" width="155.344" height="755.422"/>
					
						<rect x="1988.598" y="972.936" transform="matrix(-1 -1.224647e-16 1.224647e-16 -1 4132.54 2701.2932)" style="fill:#DFDCF7;" width="155.344" height="755.422"/>
					<rect x="1988.598" y="972.735" style="fill:#B1C9F6;" width="155.305" height="43.652"/>
					<rect x="1988.598" y="1067.412" style="fill:#B1C9F6;" width="155.305" height="43.651"/>
					<rect x="1988.598" y="1162.087" style="fill:#C643DB;" width="155.305" height="43.652"/>
					<rect x="1988.598" y="1256.763" style="fill:#C643DB;" width="155.305" height="43.652"/>
					<rect x="1988.598" y="1351.439" style="fill:#C643DB;" width="155.305" height="43.652"/>
					<rect x="1988.598" y="1446.114" style="fill:#C643DB;" width="155.305" height="43.652"/>
					<rect x="1988.598" y="1540.791" style="fill:#C643DB;" width="155.305" height="43.652"/>
					<rect x="1988.598" y="1635.467" style="fill:#C643DB;" width="155.305" height="43.652"/>
				</g>
				<g>
					
						<rect x="1775.157" y="1079.829" transform="matrix(-1 -1.224647e-16 1.224647e-16 -1 3705.6565 2808.1863)" style="fill:#B1C9F6;" width="155.343" height="648.528"/>
					
						<rect x="1740.266" y="1079.829" transform="matrix(-1 -1.224647e-16 1.224647e-16 -1 3635.8767 2808.1863)" style="fill:#DFDCF7;" width="155.344" height="648.528"/>
					<rect x="1740.266" y="1079.657" style="fill:#B1C9F6;" width="155.305" height="37.475"/>
					<rect x="1740.266" y="1160.936" style="fill:#B1C9F6;" width="155.305" height="37.475"/>
					<rect x="1740.266" y="1242.215" style="fill:#B1C9F6;" width="155.305" height="37.474"/>
					<rect x="1740.266" y="1323.493" style="fill:#B1C9F6;" width="155.305" height="37.475"/>
					<rect x="1740.266" y="1404.773" style="fill:#B1C9F6;" width="155.305" height="37.475"/>
					<rect x="1740.266" y="1486.052" style="fill:#B1C9F6;" width="155.305" height="37.475"/>
					<rect x="1740.266" y="1567.331" style="fill:#C643DB;" width="155.305" height="37.476"/>
					<rect x="1740.266" y="1648.61" style="fill:#C643DB;" width="155.305" height="37.475"/>
				</g>
				<rect x="2197.855" y="1705.186" style="fill:#CF5FE0;" width="65.051" height="94.859"/>
				<path style="fill:#FFFFFF;" d="M2243.04,1575.778v263.362h689.07l4.692-0.044l175.856-1.652
					c0.146-0.256,0.326-0.564,0.531-0.916c0.291-0.505,0.633-1.105,1.028-1.789c0.128-0.241,0.273-0.488,0.427-0.753
					c0.522-0.934,1.113-1.986,1.772-3.194c0.804-1.463,1.703-3.133,2.697-4.991v-0.008c3.699-6.935,8.604-16.55,14.177-28.493
					c1.832-3.921,3.724-8.099,5.685-12.516c0.778-1.763,1.557-3.552,2.354-5.385v-0.009c0.77-1.772,1.54-3.578,2.311-5.428
					c0.026-0.059,0.051-0.12,0.077-0.18c0.532-1.267,1.07-2.552,1.61-3.861c0.564-1.335,1.122-2.688,1.687-4.057
					c2.876-7.072,5.821-14.581,8.749-22.5c0.077-0.205,0.155-0.419,0.231-0.625c0,0,0,0,0-0.008
					c1.919-5.18,3.828-10.53,5.719-16.044c1.043-3.032,2.071-6.105,3.1-9.229c0.059-0.189,0.128-0.377,0.188-0.582
					c0.452-1.387,0.898-2.774,1.352-4.178c0.376-1.181,0.753-2.362,1.121-3.552c0.77-2.449,1.542-4.923,2.303-7.423
					c0.976-3.211,1.944-6.473,2.894-9.769c1.284-4.477,2.542-9.031,3.767-13.663c0.368-1.387,0.737-2.783,1.096-4.178
					c1.078-4.187,2.14-8.424,3.167-12.713c0.334-1.379,0.659-2.757,0.976-4.145c0.206-0.856,0.403-1.712,0.599-2.568
					c1.55-6.789,3.023-13.706,4.393-20.753c1.515-7.756,2.911-15.667,4.16-23.706c1.156-7.424,2.201-14.966,3.099-22.611
					c0.856-7.217,1.584-14.519,2.175-21.908c1.403-17.285,2.046-35.033,1.772-53.105c-0.479-31.472-3.775-63.944-10.864-96.819
					c-0.257-1.199-0.524-2.389-0.788-3.588c-1.755-7.824-3.716-15.659-5.916-23.509c-1.67-5.985-3.476-11.978-5.419-17.969
					c-1.413-4.341-2.894-8.69-4.452-13.039c-3.527-9.846-7.439-19.691-11.772-29.528h-3.681v-8.168
					c-23.509-50.725-58.165-100.971-107.487-148.503c-0.925-0.891-1.849-1.773-2.765-2.654h-2.885v100.741h-89.157v-164.154h-98.378
					v106.561h-22.43v-127.22h-98.377v238.525h-124.422v139.086h-46.487v35.04h-106.785v-60.339h-61.307v-163.956h-75.732v302.666
					H2243.04z"/>
				<rect x="2733.451" y="1100.858" style="fill:#C643DB;" width="98.432" height="24.302"/>
				<rect x="2733.451" y="1146.514" style="fill:#C643DB;" width="98.432" height="24.304"/>
				<rect x="2733.451" y="1187.59" style="fill:#C643DB;" width="98.432" height="24.303"/>
				<rect x="2854.234" y="1187.59" style="fill:#C643DB;" width="98.433" height="24.303"/>
				<rect x="2854.234" y="1146.514" style="fill:#C643DB;" width="98.433" height="24.304"/>
				<rect x="2854.234" y="1105.501" style="fill:#C643DB;" width="98.433" height="24.303"/>
				<rect x="2733.451" y="1227.417" style="fill:#C643DB;" width="219.244" height="24.303"/>
				<rect x="2733.451" y="1267.244" style="fill:#C643DB;" width="219.244" height="24.303"/>
				<rect x="2318.809" y="1273.131" style="fill:#C643DB;" width="76.398" height="37.513"/>
				<rect x="2318.809" y="1328.921" style="fill:#C643DB;" width="76.398" height="37.514"/>
				<rect x="2318.809" y="1384.71" style="fill:#C643DB;" width="76.398" height="37.514"/>
				<rect x="2318.809" y="1443.191" style="fill:#C643DB;" width="76.398" height="37.515"/>
				<rect x="2318.809" y="1499.859" style="fill:#C643DB;" width="76.398" height="37.515"/>
				<rect x="2318.809" y="1556.528" style="fill:#C643DB;" width="76.398" height="37.514"/>
				<rect x="2318.809" y="1615.815" style="fill:#C643DB;" width="76.398" height="37.514"/>
				<rect x="2733.451" y="1306.167" style="fill:#C643DB;" width="219.244" height="15.428"/>
				<rect x="2394.147" y="1273.131" style="fill:#C643DB;" width="28.169" height="163.939"/>
				<rect x="2455.816" y="1437.07" style="fill:#C643DB;" width="56.663" height="60.339"/>
				<path style="fill:#C643DB;" d="M2952.667,1105.501v24.305l0.017,97.607l0.008,24.305v17.851h19.528v-162.134
					c-0.881-0.651-1.754-1.293-2.628-1.934H2952.667z"/>
				<rect x="2831.883" y="1084.756" style="fill:#C643DB;" width="12.005" height="127.136"/>
				<g style="opacity:0.8;">
					<g>
						<g>
							<g>
								<rect x="2629.416" y="1347.211" style="fill:#C643DB;" width="16.677" height="23.507"/>
								<rect x="2660.602" y="1347.211" style="fill:#C643DB;" width="16.678" height="23.507"/>
								<rect x="2691.091" y="1347.211" style="fill:#C643DB;" width="16.677" height="23.507"/>
								<rect x="2720" y="1347.211" style="fill:#C643DB;" width="16.676" height="23.507"/>
								<rect x="2749.463" y="1347.211" style="fill:#C643DB;" width="16.677" height="23.507"/>
							</g>
							<g>
								<rect x="2779.262" y="1347.211" style="fill:#C643DB;" width="16.678" height="23.507"/>
								<rect x="2810.45" y="1347.211" style="fill:#C643DB;" width="16.677" height="23.507"/>
								<rect x="2840.939" y="1347.211" style="fill:#C643DB;" width="16.677" height="23.507"/>
								<rect x="2869.846" y="1347.211" style="fill:#C643DB;" width="16.677" height="23.507"/>
								<rect x="2899.31" y="1347.211" style="fill:#C643DB;" width="16.677" height="23.507"/>
							</g>
						</g>
						<g>
							<g>
								<rect x="2930.012" y="1347.211" style="fill:#C643DB;" width="16.678" height="23.507"/>
								<rect x="2961.199" y="1347.211" style="fill:#C643DB;" width="16.677" height="23.507"/>
								<rect x="2991.688" y="1347.211" style="fill:#C643DB;" width="16.677" height="23.507"/>
								<rect x="3020.595" y="1347.211" style="fill:#C643DB;" width="16.677" height="23.507"/>
								<rect x="3050.059" y="1347.211" style="fill:#C643DB;" width="16.677" height="23.507"/>
							</g>
							<g>
								<rect x="3079.859" y="1347.211" style="fill:#C643DB;" width="16.678" height="23.507"/>
								<rect x="3111.047" y="1347.211" style="fill:#C643DB;" width="16.676" height="23.507"/>
								<rect x="3141.535" y="1347.211" style="fill:#C643DB;" width="16.677" height="23.507"/>
								<path style="fill:#C643DB;" d="M3170.439,1357.681v13.039h4.452C3173.478,1366.378,3171.997,1362.03,3170.439,1357.681z"/>
							</g>
						</g>
					</g>
					<g>
						<g>
							<g>
								<rect x="2629.416" y="1388.692" style="fill:#C643DB;" width="16.677" height="23.507"/>
								<rect x="2660.602" y="1388.692" style="fill:#C643DB;" width="16.678" height="23.507"/>
								<rect x="2691.091" y="1388.692" style="fill:#C643DB;" width="16.677" height="23.507"/>
								<rect x="2720" y="1388.692" style="fill:#C643DB;" width="16.676" height="23.507"/>
								<rect x="2749.463" y="1388.692" style="fill:#C643DB;" width="16.677" height="23.507"/>
							</g>
							<g>
								<rect x="2779.262" y="1388.692" style="fill:#C643DB;" width="16.678" height="23.507"/>
								<rect x="2810.45" y="1388.692" style="fill:#C643DB;" width="16.677" height="23.507"/>
								<rect x="2840.939" y="1388.692" style="fill:#C643DB;" width="16.677" height="23.507"/>
								<rect x="2869.846" y="1388.692" style="fill:#C643DB;" width="16.677" height="23.507"/>
								<rect x="2899.31" y="1388.692" style="fill:#C643DB;" width="16.677" height="23.507"/>
							</g>
						</g>
						<g>
							<g>
								<rect x="2930.012" y="1388.692" style="fill:#C643DB;" width="16.678" height="23.507"/>
								<rect x="2961.199" y="1388.692" style="fill:#C643DB;" width="16.677" height="23.507"/>
								<rect x="2991.688" y="1388.692" style="fill:#C643DB;" width="16.677" height="23.507"/>
								<rect x="3020.595" y="1388.692" style="fill:#C643DB;" width="16.677" height="23.507"/>
								<rect x="3050.059" y="1388.692" style="fill:#C643DB;" width="16.677" height="23.507"/>
							</g>
							<g>
								<rect x="3079.859" y="1388.692" style="fill:#C643DB;" width="16.678" height="23.507"/>
								<rect x="3111.047" y="1388.692" style="fill:#C643DB;" width="16.676" height="23.507"/>
								<rect x="3141.535" y="1388.692" style="fill:#C643DB;" width="16.677" height="23.507"/>
								<path style="fill:#C643DB;" d="M3170.439,1388.689v23.509h15.787c-1.755-7.824-3.716-15.659-5.916-23.509H3170.439z"/>
							</g>
						</g>
					</g>
					<g>
						<g>
							<g>
								<rect x="2629.416" y="1429.538" style="fill:#C643DB;" width="16.677" height="23.508"/>
								<rect x="2660.602" y="1429.538" style="fill:#C643DB;" width="16.678" height="23.508"/>
								<rect x="2691.091" y="1429.538" style="fill:#C643DB;" width="16.677" height="23.508"/>
								<rect x="2720" y="1429.538" style="fill:#C643DB;" width="16.676" height="23.508"/>
								<rect x="2749.463" y="1429.538" style="fill:#C643DB;" width="16.677" height="23.508"/>
							</g>
							<g>
								<rect x="2779.262" y="1429.538" style="fill:#C643DB;" width="16.678" height="23.508"/>
								<rect x="2810.45" y="1429.538" style="fill:#C643DB;" width="16.677" height="23.508"/>
								<rect x="2840.939" y="1429.538" style="fill:#C643DB;" width="16.677" height="23.508"/>
								<rect x="2869.846" y="1429.538" style="fill:#C643DB;" width="16.677" height="23.508"/>
								<rect x="2899.31" y="1429.538" style="fill:#C643DB;" width="16.677" height="23.508"/>
							</g>
						</g>
						<g>
							<g>
								<rect x="2930.012" y="1429.538" style="fill:#C643DB;" width="16.678" height="23.508"/>
								<rect x="2961.199" y="1429.538" style="fill:#C643DB;" width="16.677" height="23.508"/>
								<rect x="2991.688" y="1429.538" style="fill:#C643DB;" width="16.677" height="23.508"/>
								<rect x="3020.595" y="1429.538" style="fill:#C643DB;" width="16.677" height="23.508"/>
								<rect x="3050.059" y="1429.538" style="fill:#C643DB;" width="16.677" height="23.508"/>
							</g>
							<g>
								<rect x="3079.859" y="1429.538" style="fill:#C643DB;" width="16.678" height="23.508"/>
								<rect x="3111.047" y="1429.538" style="fill:#C643DB;" width="16.676" height="23.508"/>
								<rect x="3141.535" y="1429.538" style="fill:#C643DB;" width="16.677" height="23.508"/>
								<rect x="3170.443" y="1429.538" style="fill:#C643DB;" width="16.678" height="23.508"/>
							</g>
						</g>
					</g>
					<g>
						<g>
							<g>
								<g>
									<rect x="2629.416" y="1472.936" style="fill:#C643DB;" width="16.677" height="23.507"/>
									<rect x="2660.602" y="1472.936" style="fill:#C643DB;" width="16.678" height="23.507"/>
									<rect x="2691.091" y="1472.936" style="fill:#C643DB;" width="16.677" height="23.507"/>
									<rect x="2720" y="1472.936" style="fill:#C643DB;" width="16.676" height="23.507"/>
									<rect x="2749.463" y="1472.936" style="fill:#C643DB;" width="16.677" height="23.507"/>
								</g>
								<g>
									<rect x="2779.262" y="1472.936" style="fill:#C643DB;" width="16.678" height="23.507"/>
									<rect x="2810.45" y="1472.936" style="fill:#C643DB;" width="16.677" height="23.507"/>
									<rect x="2840.939" y="1472.936" style="fill:#C643DB;" width="16.677" height="23.507"/>
									<rect x="2869.846" y="1472.936" style="fill:#C643DB;" width="16.677" height="23.507"/>
									<rect x="2899.31" y="1472.936" style="fill:#C643DB;" width="16.677" height="23.507"/>
								</g>
							</g>
							<g>
								<g>
									<rect x="2930.012" y="1472.936" style="fill:#C643DB;" width="16.678" height="23.507"/>
									<rect x="2961.199" y="1472.936" style="fill:#C643DB;" width="16.677" height="23.507"/>
									<rect x="2991.688" y="1472.936" style="fill:#C643DB;" width="16.677" height="23.507"/>
									<rect x="3020.595" y="1472.936" style="fill:#C643DB;" width="16.677" height="23.507"/>
									<rect x="3050.059" y="1472.936" style="fill:#C643DB;" width="16.677" height="23.507"/>
								</g>
								<g>
									<rect x="3079.859" y="1472.936" style="fill:#C643DB;" width="16.678" height="23.507"/>
									<rect x="3111.047" y="1472.936" style="fill:#C643DB;" width="16.676" height="23.507"/>
									<rect x="3141.535" y="1472.936" style="fill:#C643DB;" width="16.677" height="23.507"/>
									<rect x="3170.443" y="1472.936" style="fill:#C643DB;" width="16.678" height="23.507"/>
								</g>
							</g>
						</g>
						<g>
							<g>
								<g>
									<rect x="2629.416" y="1514.417" style="fill:#C643DB;" width="16.677" height="23.507"/>
									<rect x="2660.602" y="1514.417" style="fill:#C643DB;" width="16.678" height="23.507"/>
									<rect x="2691.091" y="1514.417" style="fill:#C643DB;" width="16.677" height="23.507"/>
									<rect x="2720" y="1514.417" style="fill:#C643DB;" width="16.676" height="23.507"/>
									<rect x="2749.463" y="1514.417" style="fill:#C643DB;" width="16.677" height="23.507"/>
								</g>
								<g>
									<rect x="2779.262" y="1514.417" style="fill:#C643DB;" width="16.678" height="23.507"/>
									<rect x="2810.45" y="1514.417" style="fill:#C643DB;" width="16.677" height="23.507"/>
									<rect x="2840.939" y="1514.417" style="fill:#C643DB;" width="16.677" height="23.507"/>
									<rect x="2869.846" y="1514.417" style="fill:#C643DB;" width="16.677" height="23.507"/>
									<rect x="2899.31" y="1514.417" style="fill:#C643DB;" width="16.677" height="23.507"/>
								</g>
							</g>
							<g>
								<g>
									<rect x="2930.012" y="1514.417" style="fill:#C643DB;" width="16.678" height="23.507"/>
									<rect x="2961.199" y="1514.417" style="fill:#C643DB;" width="16.677" height="23.507"/>
									<rect x="2991.688" y="1514.417" style="fill:#C643DB;" width="16.677" height="23.507"/>
									<rect x="3020.595" y="1514.417" style="fill:#C643DB;" width="16.677" height="23.507"/>
									<rect x="3050.059" y="1514.417" style="fill:#C643DB;" width="16.677" height="23.507"/>
								</g>
								<g>
									<rect x="3079.859" y="1514.417" style="fill:#C643DB;" width="16.678" height="23.507"/>
									<rect x="3111.047" y="1514.417" style="fill:#C643DB;" width="16.676" height="23.507"/>
									<rect x="3141.535" y="1514.417" style="fill:#C643DB;" width="16.677" height="23.507"/>
									<rect x="3170.443" y="1514.417" style="fill:#C643DB;" width="16.678" height="23.507"/>
								</g>
							</g>
						</g>
						<g>
							<g>
								<g>
									<rect x="2629.416" y="1555.261" style="fill:#C643DB;" width="16.677" height="23.507"/>
									<rect x="2660.602" y="1555.261" style="fill:#C643DB;" width="16.678" height="23.507"/>
									<rect x="2691.091" y="1555.261" style="fill:#C643DB;" width="16.677" height="23.507"/>
									<rect x="2720" y="1555.261" style="fill:#C643DB;" width="16.676" height="23.507"/>
									<rect x="2749.463" y="1555.261" style="fill:#C643DB;" width="16.677" height="23.507"/>
								</g>
								<g>
									<rect x="2779.262" y="1555.261" style="fill:#C643DB;" width="16.678" height="23.507"/>
									<rect x="2810.45" y="1555.261" style="fill:#C643DB;" width="16.677" height="23.507"/>
									<rect x="2840.939" y="1555.261" style="fill:#C643DB;" width="16.677" height="23.507"/>
									<rect x="2869.846" y="1555.261" style="fill:#C643DB;" width="16.677" height="23.507"/>
									<rect x="2899.31" y="1555.261" style="fill:#C643DB;" width="16.677" height="23.507"/>
								</g>
							</g>
							<g>
								<g>
									<rect x="2930.012" y="1555.261" style="fill:#C643DB;" width="16.678" height="23.507"/>
									<rect x="2961.199" y="1555.261" style="fill:#C643DB;" width="16.677" height="23.507"/>
									<rect x="2991.688" y="1555.261" style="fill:#C643DB;" width="16.677" height="23.507"/>
									<rect x="3020.595" y="1555.261" style="fill:#C643DB;" width="16.677" height="23.507"/>
									<rect x="3050.059" y="1555.261" style="fill:#C643DB;" width="16.677" height="23.507"/>
								</g>
								<g>
									<rect x="3079.859" y="1555.261" style="fill:#C643DB;" width="16.678" height="23.507"/>
									<rect x="3111.047" y="1555.261" style="fill:#C643DB;" width="16.676" height="23.507"/>
									<rect x="3141.535" y="1555.261" style="fill:#C643DB;" width="16.677" height="23.507"/>
									<rect x="3170.443" y="1555.261" style="fill:#C643DB;" width="16.678" height="23.507"/>
								</g>
							</g>
						</g>
					</g>
				</g>
				<rect x="2512.479" y="1628.908" style="fill:#B1C9F6;" width="386.546" height="208.535"/>
				<rect x="2219.371" y="1733.176" style="fill:#B1C9F6;" width="386.545" height="104.267"/>
				
					<linearGradient id="SVGID_00000081606688718539719760000010149968997348532663_" gradientUnits="userSpaceOnUse" x1="1563.2813" y1="1749.4221" x2="1813.9714" y2="1749.4221" gradientTransform="matrix(-1 0 0 1 4743.9849 0)">
					<stop  offset="0" style="stop-color:#CF5FE0"/>
					<stop  offset="1" style="stop-color:#1B2251"/>
				</linearGradient>
				<path style="fill:url(#SVGID_00000081606688718539719760000010149968997348532663_);" d="M2930.014,1661.4v176.044h182.645
					c0.146-0.256,0.326-0.564,0.531-0.916c0.291-0.505,0.633-1.105,1.028-1.789c0.128-0.241,0.273-0.488,0.427-0.753
					c0.522-0.934,1.113-1.986,1.772-3.194c0.804-1.463,1.703-3.133,2.697-4.991v-0.008c3.699-6.935,8.604-16.55,14.177-28.493
					c1.832-3.921,3.724-8.099,5.685-12.516c0.778-1.763,1.557-3.552,2.354-5.385v-0.009c0.77-1.772,1.54-3.578,2.311-5.428
					c0.026-0.059,0.051-0.12,0.077-0.18c0.532-1.267,1.07-2.552,1.61-3.861c0.564-1.335,1.122-2.688,1.687-4.057
					c2.876-7.072,5.821-14.581,8.749-22.5c0.077-0.205,0.155-0.419,0.231-0.625c0,0,0,0,0-0.008
					c1.919-5.18,3.828-10.53,5.719-16.044c1.043-3.032,2.071-6.105,3.1-9.229c0.059-0.189,0.128-0.377,0.188-0.582
					c0.452-1.387,0.898-2.774,1.352-4.178c0.376-1.181,0.753-2.362,1.121-3.552c0.77-2.449,1.542-4.923,2.303-7.423
					c0.976-3.211,1.944-6.473,2.894-9.769c1.284-4.477,2.542-9.031,3.767-13.663c0.368-1.387,0.737-2.783,1.096-4.178
					c1.078-4.187,2.14-8.424,3.167-12.713H2930.014z"/>
				<rect x="2538.302" y="1653.329" style="fill:#FFFFFF;" width="72.019" height="38.622"/>
				<rect x="2630.749" y="1653.329" style="fill:#FFFFFF;" width="72.02" height="38.622"/>
				<rect x="2721.436" y="1653.329" style="fill:#FFFFFF;" width="72.018" height="38.622"/>
				<rect x="2810.377" y="1653.329" style="fill:#FFFFFF;" width="72.02" height="38.622"/>
				<rect x="2895.007" y="1628.908" style="fill:#DFDCF7;" width="37.102" height="210.329"/>
				<rect x="2334.014" y="1256.806" style="fill:#CF5FE0;" width="2.01" height="16.326"/>
				<rect x="2406.203" y="1256.806" style="fill:#CF5FE0;" width="2.009" height="16.326"/>
				<path style="fill:#FFFFFF;" d="M3143.642,1587.619v186.344c0.026-0.059,0.051-0.12,0.077-0.18
					c0.532-1.267,1.07-2.552,1.61-3.861c0.564-1.335,1.122-2.688,1.687-4.057c2.876-7.072,5.821-14.581,8.749-22.5
					c0.077-0.205,0.155-0.419,0.231-0.625c0,0,0,0,0-0.008c1.919-5.18,3.828-10.53,5.719-16.044c1.043-3.032,2.071-6.105,3.1-9.229
					c0.059-0.189,0.128-0.377,0.188-0.582c0.452-1.387,0.898-2.774,1.352-4.178c0.376-1.181,0.753-2.362,1.121-3.552
					c0.77-2.449,1.542-4.923,2.303-7.423c0.976-3.211,1.944-6.473,2.894-9.769c1.284-4.477,2.542-9.031,3.767-13.663
					c0.368-1.387,0.737-2.783,1.096-4.178c1.078-4.187,2.14-8.424,3.167-12.713c0.334-1.379,0.659-2.757,0.976-4.145
					c0.206-0.856,0.403-1.712,0.599-2.568c1.55-6.789,3.023-13.706,4.393-20.753c1.515-7.756,2.911-15.667,4.16-23.706
					c1.156-7.424,2.201-14.966,3.099-22.611H3143.642z"/>
				<g>
					<path style="fill:#FFFFFF;" d="M3143.642,1657.255v116.707c0.026-0.059,0.051-0.12,0.077-0.18
						c0.532-1.267,1.07-2.552,1.61-3.861c0.564-1.335,1.122-2.688,1.687-4.057c2.876-7.072,5.821-14.581,8.749-22.5
						c0.077-0.205,0.155-0.419,0.231-0.625c0,0,0,0,0-0.008c1.919-5.18,3.828-10.53,5.719-16.044c1.043-3.032,2.071-6.105,3.1-9.229
						c0.059-0.189,0.128-0.377,0.188-0.582c0.452-1.387,0.898-2.774,1.352-4.178c0.376-1.181,0.753-2.362,1.121-3.552
						c0.77-2.449,1.542-4.923,2.303-7.423c0.976-3.211,1.944-6.473,2.894-9.769c1.284-4.477,2.542-9.031,3.767-13.663
						c0.368-1.387,0.737-2.783,1.096-4.178c1.078-4.187,2.14-8.424,3.167-12.713c0.334-1.379,0.659-2.757,0.976-4.145H3143.642z"/>
					<path style="fill:#C643DB;" d="M3143.642,1633.935v58.019h29.031c1.284-4.477,2.542-9.031,3.767-13.663
						c0.368-1.387,0.737-2.783,1.096-4.178c1.078-4.187,2.14-8.424,3.167-12.713c0.334-1.379,0.659-2.757,0.976-4.145
						c0.206-0.856,0.403-1.712,0.599-2.568c1.55-6.789,3.023-13.706,4.393-20.753H3143.642z"/>
					<g>
						<g>
							<g>
								<path style="fill:#C643DB;" d="M3161.715,1709.146v17.542c1.043-3.032,2.071-6.105,3.1-9.229
									c0.059-0.189,0.128-0.377,0.188-0.582c0.452-1.387,0.898-2.774,1.352-4.178c0.376-1.181,0.753-2.362,1.121-3.552H3161.715z"
									/>
							</g>
						</g>
					</g>
					<rect x="3163.887" y="1650.237" style="fill:#DFDCF7;" width="11.455" height="19.816"/>
				</g>
				<g>
					<rect x="2027.135" y="1657.259" style="fill:#B1C9F6;" width="265.409" height="178.491"/>
					<rect x="2027.135" y="1633.938" style="fill:#C643DB;" width="265.409" height="58.013"/>
					<g>
						<g>
							<g>
								<rect x="2045.206" y="1709.144" style="fill:#C643DB;" width="13.632" height="19.213"/>
								<rect x="2070.696" y="1709.144" style="fill:#C643DB;" width="13.631" height="19.213"/>
								<rect x="2095.616" y="1709.144" style="fill:#C643DB;" width="13.631" height="19.213"/>
								<rect x="2119.243" y="1709.144" style="fill:#C643DB;" width="13.63" height="19.213"/>
								<rect x="2143.323" y="1709.144" style="fill:#C643DB;" width="13.631" height="19.213"/>
							</g>
							<g>
								<rect x="2167.68" y="1709.144" style="fill:#C643DB;" width="13.631" height="19.213"/>
								<rect x="2193.169" y="1709.144" style="fill:#C643DB;" width="13.631" height="19.213"/>
								<rect x="2218.089" y="1709.144" style="fill:#C643DB;" width="13.631" height="19.213"/>
								<rect x="2241.717" y="1709.144" style="fill:#C643DB;" width="13.631" height="19.213"/>
								<rect x="2265.798" y="1709.144" style="fill:#C643DB;" width="13.63" height="19.213"/>
							</g>
						</g>
						<g>
							<g>
								<rect x="2045.206" y="1743.049" style="fill:#C643DB;" width="13.632" height="19.212"/>
								<rect x="2070.696" y="1743.049" style="fill:#C643DB;" width="13.631" height="19.212"/>
								<rect x="2095.616" y="1743.049" style="fill:#C643DB;" width="13.631" height="19.212"/>
								<rect x="2119.243" y="1743.049" style="fill:#C643DB;" width="13.63" height="19.212"/>
								<rect x="2143.323" y="1743.049" style="fill:#C643DB;" width="13.631" height="19.212"/>
							</g>
							<g>
								<rect x="2167.68" y="1743.049" style="fill:#C643DB;" width="13.631" height="19.212"/>
								<rect x="2193.169" y="1743.049" style="fill:#C643DB;" width="13.631" height="19.212"/>
								<rect x="2218.089" y="1743.049" style="fill:#C643DB;" width="13.631" height="19.212"/>
								<rect x="2241.717" y="1743.049" style="fill:#C643DB;" width="13.631" height="19.212"/>
								<rect x="2265.798" y="1743.049" style="fill:#C643DB;" width="13.63" height="19.212"/>
							</g>
						</g>
						<g>
							<g>
								<rect x="2045.206" y="1776.432" style="fill:#EFECEA;" width="13.632" height="19.213"/>
								<rect x="2070.696" y="1776.432" style="fill:#EFECEA;" width="13.631" height="19.213"/>
								<rect x="2095.616" y="1776.432" style="fill:#EFECEA;" width="13.631" height="19.213"/>
								<rect x="2119.243" y="1776.432" style="fill:#EFECEA;" width="13.63" height="19.213"/>
								<rect x="2143.323" y="1776.432" style="fill:#EFECEA;" width="13.631" height="19.213"/>
							</g>
							<g>
								<rect x="2167.68" y="1776.432" style="fill:#C643DB;" width="13.631" height="19.213"/>
								<rect x="2193.169" y="1776.432" style="fill:#C643DB;" width="13.631" height="19.213"/>
								<rect x="2218.089" y="1776.432" style="fill:#C643DB;" width="13.631" height="19.213"/>
								<rect x="2241.717" y="1776.432" style="fill:#C643DB;" width="13.631" height="19.213"/>
								<rect x="2265.798" y="1776.432" style="fill:#C643DB;" width="13.63" height="19.213"/>
							</g>
						</g>
					</g>
					<rect x="2047.383" y="1650.237" style="fill:#DFDCF7;" width="11.455" height="19.816"/>
					<rect x="2161.1" y="1650.237" style="fill:#DFDCF7;" width="11.454" height="19.816"/>
					<rect x="2251.56" y="1650.237" style="fill:#DFDCF7;" width="11.455" height="19.816"/>
				</g>
				<g>
					<rect x="1745.059" y="1657.259" style="fill:#FFFFFF;" width="265.408" height="178.491"/>
					<rect x="1745.059" y="1633.938" style="fill:#C643DB;" width="265.408" height="58.013"/>
					<g>
						<g>
							<g>
								<rect x="1763.13" y="1709.144" style="fill:#C643DB;" width="13.631" height="19.213"/>
								<rect x="1788.62" y="1709.144" style="fill:#C643DB;" width="13.631" height="19.213"/>
								<rect x="1813.539" y="1709.144" style="fill:#C643DB;" width="13.63" height="19.213"/>
								<rect x="1837.167" y="1709.144" style="fill:#C643DB;" width="13.63" height="19.213"/>
								<rect x="1861.248" y="1709.144" style="fill:#C643DB;" width="13.631" height="19.213"/>
							</g>
							<g>
								<rect x="1885.603" y="1709.144" style="fill:#C643DB;" width="13.631" height="19.213"/>
								<rect x="1911.094" y="1709.144" style="fill:#C643DB;" width="13.63" height="19.213"/>
								<rect x="1936.014" y="1709.144" style="fill:#C643DB;" width="13.63" height="19.213"/>
								<rect x="1959.64" y="1709.144" style="fill:#C643DB;" width="13.631" height="19.213"/>
								<rect x="1983.72" y="1709.144" style="fill:#C643DB;" width="13.631" height="19.213"/>
							</g>
						</g>
						<g>
							<g>
								<rect x="1763.13" y="1743.049" style="fill:#C643DB;" width="13.631" height="19.212"/>
								<rect x="1788.62" y="1743.049" style="fill:#C643DB;" width="13.631" height="19.212"/>
								<rect x="1813.539" y="1743.049" style="fill:#C643DB;" width="13.63" height="19.212"/>
								<rect x="1837.167" y="1743.049" style="fill:#C643DB;" width="13.63" height="19.212"/>
								<rect x="1861.248" y="1743.049" style="fill:#C643DB;" width="13.631" height="19.212"/>
							</g>
							<g>
								<rect x="1885.603" y="1743.049" style="fill:#C643DB;" width="13.631" height="19.212"/>
								<rect x="1911.094" y="1743.049" style="fill:#C643DB;" width="13.63" height="19.212"/>
								<rect x="1936.014" y="1743.049" style="fill:#C643DB;" width="13.63" height="19.212"/>
								<rect x="1959.64" y="1743.049" style="fill:#C643DB;" width="13.631" height="19.212"/>
								<rect x="1983.72" y="1743.049" style="fill:#C643DB;" width="13.631" height="19.212"/>
							</g>
						</g>
						<g>
							<g>
								<rect x="1763.13" y="1776.432" style="fill:#C643DB;" width="13.631" height="19.213"/>
								<rect x="1788.62" y="1776.432" style="fill:#C643DB;" width="13.631" height="19.213"/>
								<rect x="1813.539" y="1776.432" style="fill:#C643DB;" width="13.63" height="19.213"/>
								<rect x="1837.167" y="1776.432" style="fill:#C643DB;" width="13.63" height="19.213"/>
								<rect x="1861.248" y="1776.432" style="fill:#C643DB;" width="13.631" height="19.213"/>
							</g>
							<g>
								<rect x="1885.603" y="1776.432" style="fill:#C643DB;" width="13.631" height="19.213"/>
								<rect x="1911.094" y="1776.432" style="fill:#C643DB;" width="13.63" height="19.213"/>
								<rect x="1936.014" y="1776.432" style="fill:#C643DB;" width="13.63" height="19.213"/>
								<rect x="1959.64" y="1776.432" style="fill:#C643DB;" width="13.631" height="19.213"/>
								<rect x="1983.72" y="1776.432" style="fill:#C643DB;" width="13.631" height="19.213"/>
							</g>
						</g>
					</g>
					<rect x="1765.307" y="1650.237" style="fill:#DFDCF7;" width="11.454" height="19.816"/>
					<rect x="1879.023" y="1650.237" style="fill:#DFDCF7;" width="11.455" height="19.816"/>
					<rect x="1969.484" y="1650.237" style="fill:#DFDCF7;" width="11.453" height="19.816"/>
				</g>
				<g>
					<rect x="1189.535" y="1657.259" style="fill:#B1C9F6;" width="265.409" height="178.491"/>
					<rect x="1189.535" y="1633.938" style="fill:#242E6C;" width="265.409" height="58.013"/>
					<g>
						<g>
							<g>
								<rect x="1207.608" y="1709.144" style="fill:#242E6C;" width="13.63" height="19.213"/>
								<rect x="1233.098" y="1709.144" style="fill:#242E6C;" width="13.631" height="19.213"/>
								<rect x="1258.016" y="1709.144" style="fill:#242E6C;" width="13.63" height="19.213"/>
								<rect x="1281.644" y="1709.144" style="fill:#242E6C;" width="13.631" height="19.213"/>
								<rect x="1305.724" y="1709.144" style="fill:#242E6C;" width="13.631" height="19.213"/>
							</g>
							<g>
								<rect x="1330.081" y="1709.144" style="fill:#242E6C;" width="13.631" height="19.213"/>
								<rect x="1355.57" y="1709.144" style="fill:#242E6C;" width="13.631" height="19.213"/>
								<rect x="1380.49" y="1709.144" style="fill:#242E6C;" width="13.631" height="19.213"/>
								<rect x="1404.117" y="1709.144" style="fill:#242E6C;" width="13.631" height="19.213"/>
								<rect x="1428.197" y="1709.144" style="fill:#242E6C;" width="13.631" height="19.213"/>
							</g>
						</g>
						<g>
							<g>
								<rect x="1207.608" y="1743.049" style="fill:#242E6C;" width="13.63" height="19.212"/>
								<rect x="1233.098" y="1743.049" style="fill:#242E6C;" width="13.631" height="19.212"/>
								<rect x="1258.016" y="1743.049" style="fill:#242E6C;" width="13.63" height="19.212"/>
								<rect x="1281.644" y="1743.049" style="fill:#242E6C;" width="13.631" height="19.212"/>
								<rect x="1305.724" y="1743.049" style="fill:#242E6C;" width="13.631" height="19.212"/>
							</g>
							<g>
								<rect x="1330.081" y="1743.049" style="fill:#242E6C;" width="13.631" height="19.212"/>
								<rect x="1355.57" y="1743.049" style="fill:#242E6C;" width="13.631" height="19.212"/>
								<rect x="1380.49" y="1743.049" style="fill:#242E6C;" width="13.631" height="19.212"/>
								<rect x="1404.117" y="1743.049" style="fill:#242E6C;" width="13.631" height="19.212"/>
								<rect x="1428.197" y="1743.049" style="fill:#242E6C;" width="13.631" height="19.212"/>
							</g>
						</g>
						<g>
							<g>
								<rect x="1207.608" y="1776.432" style="fill:#242E6C;" width="13.63" height="19.213"/>
								<rect x="1233.098" y="1776.432" style="fill:#242E6C;" width="13.631" height="19.213"/>
								<rect x="1258.016" y="1776.432" style="fill:#242E6C;" width="13.63" height="19.213"/>
								<rect x="1281.644" y="1776.432" style="fill:#242E6C;" width="13.631" height="19.213"/>
								<rect x="1305.724" y="1776.432" style="fill:#242E6C;" width="13.631" height="19.213"/>
							</g>
							<g>
								<rect x="1330.081" y="1776.432" style="fill:#242E6C;" width="13.631" height="19.213"/>
								<rect x="1355.57" y="1776.432" style="fill:#242E6C;" width="13.631" height="19.213"/>
								<rect x="1380.49" y="1776.432" style="fill:#242E6C;" width="13.631" height="19.213"/>
								<rect x="1404.117" y="1776.432" style="fill:#242E6C;" width="13.631" height="19.213"/>
								<rect x="1428.197" y="1776.432" style="fill:#242E6C;" width="13.631" height="19.213"/>
							</g>
						</g>
					</g>
					<rect x="1209.784" y="1650.237" style="fill:#DFDCF7;" width="11.454" height="19.816"/>
					<rect x="1323.5" y="1650.237" style="fill:#DFDCF7;" width="11.454" height="19.816"/>
					<rect x="1413.96" y="1650.237" style="fill:#DFDCF7;" width="11.455" height="19.816"/>
				</g>
			</g>
			<path style="fill:#F24B46;" d="M1483.193,1796.887c0-1.059,0-2.119,0.031-3.181c0-6.483,0.031-13.089,0.06-18.573
				c0.061-8.816,3.092-16.878,6.486-23.149c4.423-8.09,9.422-13.209,9.422-13.209l10.393-8.396l34.903-28.083l0.2-0.432
				c-0.806-0.825-1.515-1.742-2.033-2.783c-0.759-1.516-1.183-3.241-1.183-5.029v-20.12c0-6.182,5.06-11.273,11.271-11.273h3.606
				c2.098,0,4.054,0.601,5.743,1.617l23.96-51.752c1.455-6.899,3.401-13.201,5.525-18.808c6.538-17.251,25.091-28.993,46.178-28.993
				h0.705h123.378h56.374v0.006h0.009v0.301h237.885v256.158h-29.59c-2.616,13.241-10.627,22.954-20.224,22.954
				c0,0-11.702,0-13.329,0c-9.597,0-17.609-9.714-20.225-22.954h-61.708c-2.616,13.241-10.629,22.954-20.225,22.954
				c0,0-11.703,0-13.33,0c-9.596,0-17.607-9.714-20.222-22.954h-39.033h-7.788h-20.361h-71.387c0.454-2.635,0.665-5.36,0.665-8.179
				c0-0.206-0.056-0.386-0.059-0.589l-0.606,8.768h-6.352c-2.616,13.241-10.628,22.954-20.225,22.954c0,0-11.703,0-13.329,0
				c-9.597,0-17.61-9.714-20.224-22.954h-21.741h-77.751c-2.616,13.241-10.628,22.954-20.224,22.954c0,0-11.703,0-13.33,0
				c-9.65,0-17.701-9.818-20.27-23.175C1492.892,1819.84,1483.165,1809.557,1483.193,1796.887z"/>
			<g>
				<g>
					<path style="fill:#FD8857;" d="M1837.461,1390.5v53.029c0,4.713,1.119,9.264,3.115,13.257
						c4.871,9.746,15.014,16.453,26.595,16.453h9.504c16.291,0,29.71-13.337,29.71-29.709V1390.5c0-5.592-1.597-10.782-4.313-15.256
						c0-0.079,0-0.079,0-0.079c-5.271-8.625-14.696-14.377-25.397-14.377h-9.504
						C1850.799,1360.789,1837.461,1374.208,1837.461,1390.5z"/>
					<path style="opacity:0.3;fill:#6615B2;" d="M1840.575,1456.786c4.871,9.746,15.014,16.453,26.595,16.453h9.504
						c16.291,0,29.71-13.337,29.71-29.709V1390.5c0-5.592-1.597-10.782-4.313-15.256
						C1901.511,1378.52,1888.893,1451.276,1840.575,1456.786z"/>
				</g>
				<polygon style="fill:#1B2251;" points="2308.464,1778.64 2161.604,1778.64 2161.604,1630.419 2314.814,1630.419 				"/>
				<path style="fill:#7F22BA;" d="M1845.384,1465.325l721.509,17.79v-380.471h-473.794c-45.165,0-86.529,25.284-107.125,65.48
					l-31.006,60.516L1845.384,1465.325z"/>
				<g>
					<path style="fill:#7F22BA;" d="M2255.267,1754.524c0,40.24-20.756,84.613-20.756,84.613s-30.848,0-35.135,0
						c-30.868,0-55.891-37.882-55.891-84.613c0-46.73,60.158-84.613,91.025-84.613
						C2265.378,1669.911,2255.267,1707.794,2255.267,1754.524z"/>
					<ellipse style="fill:#C643DB;" cx="2234.511" cy="1754.524" rx="55.89" ry="84.613"/>
					<ellipse style="fill:#7F22BA;" cx="2233.806" cy="1754.524" rx="42.099" ry="63.735"/>
				</g>
				<g>
					<path style="fill:#7F22BA;" d="M1851.283,1754.524c0,40.24-20.754,84.613-20.754,84.613s-30.848,0-35.135,0
						c-30.868,0-55.891-37.882-55.891-84.613c0-46.73,60.157-84.613,91.025-84.613
						C1861.395,1669.911,1851.283,1707.794,1851.283,1754.524z"/>
					<path style="fill:#C643DB;" d="M1886.418,1754.524c0,46.731-25.023,84.613-55.889,84.613c-30.868,0-55.89-37.882-55.89-84.613
						c0-46.73,25.022-84.613,55.89-84.613C1861.395,1669.911,1886.418,1707.794,1886.418,1754.524z"/>
					<ellipse style="fill:#7F22BA;" cx="1829.823" cy="1754.524" rx="42.099" ry="63.735"/>
				</g>
				<g>
					<path style="fill:#7F22BA;" d="M2778.991,1754.524c0,40.24-20.756,84.613-20.756,84.613s-30.847,0-35.134,0
						c-30.867,0-55.889-37.882-55.889-84.613c0-46.73,60.158-84.613,91.023-84.613
						C2789.104,1669.911,2778.991,1707.794,2778.991,1754.524z"/>
					<path style="fill:#C643DB;" d="M2814.126,1754.524c0,46.731-25.023,84.613-55.891,84.613
						c-30.866,0-55.888-37.882-55.888-84.613c0-46.73,25.023-84.613,55.888-84.613
						C2789.104,1669.911,2814.126,1707.794,2814.126,1754.524z"/>
					<path style="fill:#7F22BA;" d="M2799.63,1754.524c0,35.2-18.848,63.735-42.098,63.735c-23.25,0-42.099-28.534-42.099-63.735
						c0-35.199,18.849-63.735,42.099-63.735C2780.782,1690.79,2799.63,1719.325,2799.63,1754.524z"/>
				</g>
				<path style="fill:#1B2251;" d="M1683.854,1714.59c-0.08,35.379,28.593,64.05,63.891,64.05h413.859
					c-1.198-6.946-1.836-14.136-1.836-21.562c0-54.708,32.823-99.113,73.235-99.113c40.492,0,73.315,44.405,73.315,99.113
					c0,7.426-0.557,14.616-1.757,21.562h241.83c0,0,9.744-107.976,8.546-162.125c-0.958-47.119-0.958-139.443,1.837-161.963
					c0-3.356-233.204-3.756-292.065-3.994c-7.987-0.082-12.779-0.082-13.258-0.082l-0.798,0.559l-0.878,0.64
					c-10.862,7.587-71.718,50.235-109.495,75.232c-33.304,21.963-279.127,30.908-375.524,33.625
					c-23.958,0.637-38.734,0.877-38.734,0.877s-13.177,13.497-24.838,34.82c-8.944,16.533-16.93,37.776-17.09,61.017
					c-0.079,14.456-0.159,31.866-0.159,48.956C1683.854,1708.999,1683.854,1711.795,1683.854,1714.59z"/>
				<path style="fill:#B1C9F6;" d="M1903.562,1450.476h324.251c7.507,0,14.294-4.39,17.409-11.18l80.265-178.577
					c2.635-5.829-1.679-12.459-8.067-12.459h-342.06c-7.508,0-14.376,4.473-17.411,11.42l-57.501,131.376l-14.376,32.825
					C1880.641,1436.422,1889.825,1450.476,1903.562,1450.476z"/>
				<path style="fill:#242E6C;" d="M2054.585,1706.203c0.081,5.592,0.319,10.863,0.639,15.576
					c2.316,31.067,33.543,56.861,33.543,56.861h72.836c-1.198-6.946-1.836-14.136-1.836-21.562c0-18.609,3.833-36.019,10.383-50.875
					c12.858-28.91,36.178-48.238,62.852-48.238c26.756,0,50.075,19.329,62.934,48.238c6.548,14.856,10.382,32.266,10.382,50.875
					c0,7.426-0.557,14.616-1.757,21.562h262.356v-675.971h-210.603v134.171c0,0-63.172,148.389-91.604,213.719
					c-7.027,16.29-11.98,27.393-13.258,29.789c-6.31,12.059-153.1,86.333-177.378,108.216
					C2060.576,1600.702,2053.866,1663.796,2054.585,1706.203z"/>
				<path style="fill:#B1C9F6;" d="M2353.958,1280.387l-69.068,170.12h118.51c0,0,24.311-4.07,27.427-53.752
					c3.328-53.039,3.321-144.569,3.321-144.569l-52.017-0.25C2362.303,1254.929,2359.198,1265.819,2353.958,1280.387z"/>
				<polygon style="fill:#242E6C;" points="1726.022,1561.41 2110.331,1561.41 2250.653,1451.036 2251.451,1450.476 
					1863.789,1450.476 1753.416,1539.287 				"/>
				<path style="fill:#FD8857;" d="M1701.184,1596.23c2.237,3.675,5.112,6.071,8.226,6.628l53.908,9.984
					c4.553,0.879,8.067-7.028,6.869-15.174l-5.271-36.259l-0.16-0.877l-1.039-7.429c-0.957-6.389-3.752-11.26-7.186-12.619
					l-3.116-1.197l-27.394,22.123C1726.022,1561.41,1712.845,1574.906,1701.184,1596.23z"/>
				<path style="fill:#6615B2;" d="M2060.576,1626.261l34.74-3.436c12.14-1.197,21.964-10.302,24.12-22.282l7.987-43.925
					c0.159-0.718,0.24-1.357,0.159-2.074c-24.759,14.213-45.602,26.913-53.508,34.02
					C2068.321,1593.756,2063.771,1608.131,2060.576,1626.261z"/>
				<path style="fill:#FD8857;" d="M1994.608,1632.808l65.888-6.547h0.08l34.74-3.436c12.14-1.197,21.964-10.302,24.12-22.282
					l7.987-43.925c0.159-0.718,0.24-1.357,0.159-2.074v-0.082c0.4-9.264-8.066-16.77-17.57-14.854l-102.627,20.844
					c-6.55,1.359-11.74,6.229-13.496,12.619l-12.061,44.565C1979.593,1625.781,1986.222,1633.688,1994.608,1632.808z"/>
				<path style="fill:#1B2251;" d="M1954.942,1228.635h400.365c0,0,1.547-25.617,11.594-54.876
					c8.944-25.838,24.402-54.657,51.454-71.106h-327.16c-53.33,0-100.587,28.485-119.359,71.106c-0.883,1.766-1.655,3.531-2.319,5.3
					C1963.886,1193.853,1958.807,1210.415,1954.942,1228.635z"/>
				<path style="fill:#F24B46;" d="M2060.496,1626.261l34.82-3.436c12.14-1.197,21.964-10.302,24.12-22.282l7.987-43.925
					c0.159-0.718,0.24-1.438,0.159-2.156c-24.759,14.295-45.602,26.996-53.508,34.103
					C2068.321,1593.756,2063.771,1608.131,2060.496,1626.261z"/>
				<path style="fill:#1B2251;" d="M1683.854,1714.59c-0.08,35.379,29.949,64.05,67.007,64.05h410.743
					c-1.198-6.946-1.836-14.136-1.836-21.562c0-18.609,3.833-36.019,10.383-50.875h-486.215
					C1683.854,1708.999,1683.854,1711.795,1683.854,1714.59z"/>
				<path style="fill:#1B2251;" d="M2306.318,1757.078c0,7.426-0.557,14.616-1.757,21.562h262.356v-72.437h-270.98
					C2302.484,1721.058,2306.318,1738.469,2306.318,1757.078z"/>
				
					<linearGradient id="SVGID_00000142138176506924054970000005524560035442095264_" gradientUnits="userSpaceOnUse" x1="1789.0842" y1="1605.9576" x2="1962.7291" y2="1605.9576">
					<stop  offset="0" style="stop-color:#F9795A"/>
					<stop  offset="1" style="stop-color:#EB3668"/>
				</linearGradient>
				<path style="fill:url(#SVGID_00000142138176506924054970000005524560035442095264_);" d="M1954.43,1564.532h-157.156
					c-5.021,0-8.859,6.77-8.093,14.273l5.578,54.616c0.82,8.033,5.392,13.961,10.766,13.961h129.475
					c8.3,0,15.627-8.214,18.04-20.229l9.324-46.434C1963.983,1572.664,1959.998,1564.532,1954.43,1564.532z"/>
				<path style="fill:#C0D3F8;" d="M1900.448,1391.057c185.365-9.504,310.752-108.694,348.608-142.796H1975.36
					c-7.508,0-14.376,4.473-17.411,11.42L1900.448,1391.057z"/>
				<rect x="2492.774" y="1102.645" style="fill:#1B2251;" width="701.134" height="676.043"/>
				<path style="fill:#F24B46;" d="M2320.041,1363.154c0,0-5.997,68.755,27.947,87.585h-63.412L2320.041,1363.154z"/>
				<path style="fill:#F24B46;" d="M2310.724,1409.167c0,0,14.319-10.19,15.548-18.637v48.087h-18.736L2310.724,1409.167z"/>
				<g>
					<path style="fill:#FD8857;" d="M2326.284,1390.5v53.029c0,4.713,1.119,9.264,3.116,13.257
						c4.871,9.746,15.013,16.453,26.595,16.453h9.504c16.291,0,29.709-13.337,29.709-29.709V1390.5
						c0-5.592-1.596-10.782-4.313-15.256c0-0.079,0-0.079,0-0.079c-5.27-8.625-14.695-14.377-25.396-14.377h-9.504
						C2339.622,1360.789,2326.284,1374.208,2326.284,1390.5z"/>
					<path style="fill:#F24B46;" d="M2329.4,1456.786c4.871,9.746,15.013,16.453,26.595,16.453h9.504
						c16.291,0,29.709-13.337,29.709-29.709V1390.5c0-5.592-1.596-10.782-4.313-15.256
						C2390.335,1378.52,2377.717,1451.276,2329.4,1456.786z"/>
				</g>
				<path style="fill:#1B2251;" d="M2964.908,1778.688h172.468c3.645-15.568,14.613-126.422-82.039-126.425
					C2967.503,1652.26,2961.044,1753.402,2964.908,1778.688z"/>
				<g>
					<path style="fill:#7F22BA;" d="M3083.387,1754.524c0,40.24-20.754,84.613-20.754,84.613s-30.849,0-35.135,0
						c-30.868,0-55.89-37.882-55.89-84.613c0-46.73,60.157-84.613,91.025-84.613
						C3093.499,1669.911,3083.387,1707.794,3083.387,1754.524z"/>
					<path style="fill:#C643DB;" d="M3118.521,1754.524c0,46.731-25.022,84.613-55.888,84.613c-30.868,0-55.89-37.882-55.89-84.613
						c0-46.73,25.022-84.613,55.89-84.613C3093.499,1669.911,3118.521,1707.794,3118.521,1754.524z"/>
					<path style="fill:#7F22BA;" d="M3104.026,1754.524c0,35.2-18.849,63.735-42.099,63.735c-23.25,0-42.098-28.534-42.098-63.735
						c0-35.199,18.848-63.735,42.098-63.735C3085.177,1690.79,3104.026,1719.325,3104.026,1754.524z"/>
				</g>
				<path style="fill:#242E6C;" d="M1954.942,1228.635h400.365c0,0,1.547-25.617,11.594-54.876h-395.064
					c-0.883,1.766-1.655,3.531-2.319,5.3C1963.886,1193.853,1958.807,1210.415,1954.942,1228.635z"/>
			</g>
			
				<linearGradient id="SVGID_00000079484613247661477750000007303022293394374570_" gradientUnits="userSpaceOnUse" x1="2164.9717" y1="866.5378" x2="2426.8999" y2="866.5378">
				<stop  offset="0" style="stop-color:#F9795A"/>
				<stop  offset="1" style="stop-color:#EB3668"/>
			</linearGradient>
			<path style="fill:url(#SVGID_00000079484613247661477750000007303022293394374570_);" d="M2164.972,815.453
				c0,72.329,130.964,233.133,130.964,233.133S2426.9,887.782,2426.9,815.453c0-72.33-58.635-130.964-130.964-130.964
				C2223.607,684.489,2164.972,743.123,2164.972,815.453z M2234.72,814.122c0-33.809,27.406-61.215,61.216-61.215
				c33.808,0,61.216,27.407,61.216,61.215c0,33.808-27.408,61.217-61.216,61.217C2262.126,875.339,2234.72,847.93,2234.72,814.122z"
				/>
			<g>
				<path style="fill:#FD8857;" d="M2555.171,1513.521c-1.071-0.885-1.22-2.47-0.335-3.541l3.134-3.793
					c0.884-1.07,2.47-1.224,3.54-0.339c1.071,0.884,1.223,2.469,0.339,3.54l-3.137,3.797c-0.498,0.601-1.216,0.912-1.939,0.912
					C2556.208,1514.098,2555.64,1513.909,2555.171,1513.521z M2562.578,1504.553c-1.073-0.881-1.229-2.465-0.349-3.539
					c1.399-1.705,2.815-3.433,4.245-5.187c0.878-1.077,2.462-1.239,3.538-0.359c1.076,0.877,1.237,2.461,0.359,3.537
					c-1.433,1.757-2.852,3.49-4.254,5.199c-0.498,0.606-1.219,0.92-1.946,0.92
					C2563.61,1505.124,2563.045,1504.937,2562.578,1504.553z M2571.071,1494.165c-1.08-0.874-1.247-2.457-0.373-3.536
					c1.389-1.718,2.791-3.457,4.201-5.218c0.868-1.084,2.451-1.26,3.534-0.39c1.084,0.868,1.259,2.45,0.39,3.535
					c-1.415,1.766-2.821,3.512-4.216,5.235c-0.497,0.615-1.224,0.933-1.957,0.933
					C2572.095,1494.725,2571.536,1494.542,2571.071,1494.165z M2579.482,1483.709c-1.088-0.862-1.272-2.444-0.41-3.533
					c1.375-1.735,2.757-3.488,4.145-5.26c0.856-1.093,2.437-1.283,3.53-0.428c1.093,0.856,1.285,2.436,0.428,3.53
					c-1.393,1.778-2.781,3.538-4.161,5.28c-0.497,0.627-1.231,0.953-1.973,0.953
					C2580.494,1484.253,2579.944,1484.076,2579.482,1483.709z M2587.78,1473.162c-1.099-0.849-1.301-2.429-0.451-3.528
					c1.355-1.752,2.715-3.521,4.078-5.307c0.843-1.105,2.421-1.317,3.525-0.473c1.104,0.843,1.316,2.421,0.473,3.525
					c-1.37,1.794-2.736,3.572-4.097,5.332c-0.495,0.641-1.239,0.976-1.991,0.976
					C2588.779,1473.688,2588.237,1473.517,2587.78,1473.162z M2595.945,1462.516c-1.11-0.835-1.333-2.411-0.498-3.521
					c1.332-1.772,2.666-3.56,4-5.363c0.826-1.117,2.401-1.353,3.517-0.525c1.116,0.826,1.351,2.4,0.525,3.517
					c-1.342,1.813-2.683,3.611-4.023,5.393c-0.494,0.657-1.248,1.004-2.012,1.004
					C2596.929,1463.021,2596.398,1462.857,2595.945,1462.516z M2603.958,1451.757c-1.123-0.817-1.371-2.39-0.555-3.513
					c1.305-1.795,2.61-3.603,3.913-5.424c0.808-1.132,2.38-1.391,3.508-0.583c1.13,0.808,1.39,2.378,0.583,3.508
					c-1.311,1.833-2.624,3.653-3.937,5.458c-0.492,0.676-1.258,1.036-2.035,1.036
					C2604.922,1452.238,2604.404,1452.081,2603.958,1451.757z M2611.796,1440.865c-1.137-0.798-1.412-2.366-0.614-3.503
					c1.275-1.817,2.547-3.646,3.815-5.49c0.788-1.143,2.352-1.433,3.498-0.645c1.144,0.787,1.433,2.352,0.646,3.497
					c-1.277,1.855-2.558,3.699-3.842,5.527c-0.49,0.697-1.269,1.07-2.06,1.07
					C2612.739,1441.322,2612.235,1441.173,2611.796,1440.865z M2619.439,1429.841c-1.151-0.775-1.456-2.339-0.68-3.49
					c1.241-1.842,2.478-3.695,3.708-5.561c0.765-1.16,2.324-1.48,3.483-0.715c1.16,0.764,1.48,2.324,0.716,3.483
					c-1.24,1.88-2.486,3.747-3.736,5.603c-0.486,0.721-1.28,1.11-2.088,1.11C2620.359,1430.271,2619.871,1430.132,2619.439,1429.841
					z M2626.869,1418.669c-1.167-0.752-1.504-2.309-0.751-3.476c1.203-1.866,2.399-3.744,3.588-5.634
					c0.74-1.176,2.292-1.53,3.468-0.79c1.176,0.74,1.529,2.292,0.79,3.467c-1.199,1.906-2.405,3.8-3.618,5.682
					c-0.481,0.745-1.29,1.152-2.116,1.152C2627.762,1419.07,2627.29,1418.94,2626.869,1418.669z M2634.06,1407.342
					c-1.184-0.726-1.555-2.274-0.829-3.458c1.161-1.893,2.314-3.798,3.458-5.713c0.711-1.193,2.255-1.58,3.448-0.87
					c1.192,0.713,1.582,2.256,0.869,3.448c-1.154,1.933-2.317,3.853-3.489,5.764c-0.474,0.773-1.3,1.2-2.146,1.2
					C2634.924,1407.713,2634.47,1407.593,2634.06,1407.342z M2640.989,1395.855c-1.201-0.698-1.61-2.237-0.912-3.437
					c1.115-1.922,2.221-3.853,3.315-5.794c0.681-1.21,2.214-1.637,3.425-0.956c1.21,0.682,1.638,2.216,0.956,3.426
					c-1.104,1.96-2.221,3.91-3.347,5.849c-0.466,0.804-1.31,1.252-2.177,1.252
					C2641.821,1396.195,2641.386,1396.086,2640.989,1395.855z M2647.633,1384.201c-1.219-0.665-1.668-2.193-1.002-3.412
					c1.068-1.956,2.124-3.922,3.168-5.897c0.649-1.229,2.172-1.697,3.398-1.049c1.228,0.65,1.698,2.17,1.049,3.399
					c-1.054,1.995-2.121,3.98-3.2,5.956c-0.457,0.837-1.32,1.31-2.209,1.31C2648.428,1384.509,2648.016,1384.41,2647.633,1384.201z
					 M2653.978,1372.343c-1.237-0.632-1.728-2.145-1.097-3.383c1.011-1.984,2.01-3.975,2.993-5.977
					c0.613-1.248,2.121-1.761,3.366-1.148c1.246,0.613,1.76,2.12,1.148,3.366c-0.994,2.024-2.003,4.038-3.026,6.044
					c-0.444,0.871-1.327,1.372-2.242,1.372C2654.734,1372.617,2654.344,1372.529,2653.978,1372.343z M2659.972,1360.313
					c-1.256-0.593-1.793-2.092-1.2-3.347c0.95-2.012,1.884-4.032,2.802-6.059c0.573-1.266,2.063-1.826,3.328-1.255
					c1.265,0.573,1.827,2.063,1.254,3.329c-0.93,2.052-1.875,4.096-2.837,6.131c-0.429,0.91-1.333,1.442-2.275,1.442
					C2660.685,1360.554,2660.32,1360.477,2659.972,1360.313z M2665.584,1348.112c-1.274-0.553-1.86-2.033-1.309-3.307
					c0.883-2.039,1.749-4.087,2.596-6.142c0.529-1.284,2-1.898,3.283-1.366c1.284,0.529,1.896,1.999,1.366,3.283
					c-0.858,2.083-1.736,4.157-2.63,6.223c-0.411,0.949-1.337,1.517-2.309,1.517
					C2666.249,1348.32,2665.909,1348.253,2665.584,1348.112z M2670.782,1335.735c-1.293-0.506-1.931-1.965-1.425-3.258
					c0.809-2.067,1.6-4.143,2.371-6.225c0.482-1.302,1.928-1.969,3.231-1.485c1.302,0.482,1.968,1.928,1.486,3.231
					c-0.782,2.112-1.583,4.216-2.404,6.313c-0.389,0.992-1.338,1.599-2.342,1.599
					C2671.393,1335.91,2671.083,1335.853,2670.782,1335.735z M2675.527,1323.188c-1.311-0.457-2.004-1.891-1.548-3.202
					c0.73-2.095,1.439-4.198,2.127-6.308c0.431-1.322,1.852-2.04,3.171-1.612c1.32,0.431,2.042,1.85,1.611,3.17
					c-0.698,2.142-1.418,4.276-2.159,6.403c-0.361,1.038-1.334,1.689-2.375,1.689
					C2676.08,1323.329,2675.801,1323.283,2675.527,1323.188z M2679.781,1310.468c-1.329-0.403-2.08-1.808-1.676-3.136
					c0.642-2.116,1.269-4.264,1.864-6.385c0.374-1.337,1.76-2.117,3.1-1.744c1.337,0.375,2.117,1.762,1.743,3.1
					c-0.603,2.156-1.24,4.339-1.893,6.49c-0.33,1.085-1.327,1.785-2.405,1.785
					C2680.27,1310.578,2680.024,1310.542,2679.781,1310.468z M2683.502,1297.586c-1.345-0.344-2.156-1.715-1.811-3.06
					c0.552-2.155,1.084-4.328,1.579-6.459c0.314-1.353,1.663-2.195,3.019-1.88c1.353,0.314,2.194,1.666,1.88,3.019
					c-0.504,2.168-1.044,4.379-1.606,6.57c-0.292,1.136-1.313,1.89-2.434,1.89
					C2683.922,1297.665,2683.712,1297.64,2683.502,1297.586z M2686.65,1284.549c-1.359-0.282-2.233-1.613-1.951-2.973
					c0.451-2.174,0.879-4.369,1.272-6.523c0.249-1.366,1.559-2.272,2.925-2.023c1.366,0.25,2.272,1.56,2.022,2.926
					c-0.4,2.193-0.836,4.428-1.295,6.642c-0.247,1.187-1.292,2.004-2.46,2.004
					C2686.994,1284.601,2686.823,1284.584,2686.65,1284.549z M2689.177,1271.374c-1.372-0.215-2.31-1.502-2.095-2.873
					c0.343-2.187,0.661-4.4,0.946-6.579c0.18-1.376,1.439-2.344,2.819-2.168c1.377,0.18,2.347,1.443,2.168,2.82
					c-0.29,2.222-0.614,4.477-0.964,6.706c-0.194,1.241-1.264,2.126-2.481,2.126
					C2689.44,1271.405,2689.309,1271.395,2689.177,1271.374z M2691.043,1258.083c-1.381-0.142-2.385-1.379-2.242-2.76
					c0.229-2.205,0.429-4.432,0.597-6.619c0.106-1.385,1.325-2.439,2.699-2.315c1.385,0.106,2.421,1.315,2.315,2.699
					c-0.171,2.233-0.376,4.505-0.61,6.754c-0.134,1.293-1.226,2.255-2.498,2.255
					C2691.219,1258.097,2691.132,1258.094,2691.043,1258.083z M2692.205,1244.705c-1.387-0.067-2.457-1.247-2.39-2.634
					c0.108-2.212,0.186-4.448,0.231-6.645c0.029-1.388,1.179-2.527,2.566-2.461c1.389,0.029,2.491,1.177,2.462,2.566
					c-0.047,2.243-0.126,4.526-0.236,6.786c-0.066,1.346-1.177,2.392-2.51,2.392
					C2692.288,1244.708,2692.247,1244.707,2692.205,1244.705z M2690.089,1228.778c-0.018-2.215-0.068-4.446-0.149-6.634
					c-0.052-1.387,1.032-2.554,2.419-2.606c1.401-0.038,2.555,1.032,2.607,2.42c0.083,2.235,0.135,4.516,0.153,6.779
					c0.011,1.389-1.105,2.524-2.494,2.536c-0.007,0-0.014,0-0.021,0C2691.224,1231.272,2690.1,1230.159,2690.089,1228.778z
					 M2689.594,1215.509c-0.147-2.205-0.329-4.433-0.541-6.622c-0.134-1.383,0.878-2.612,2.261-2.745
					c1.38-0.135,2.612,0.877,2.745,2.26c0.217,2.24,0.403,4.517,0.554,6.773c0.092,1.385-0.956,2.584-2.341,2.676
					c-0.057,0.004-0.114,0.006-0.17,0.006C2690.789,1217.857,2689.683,1216.838,2689.594,1215.509z M2688.316,1202.3
					c-0.278-2.184-0.594-4.391-0.937-6.562c-0.216-1.371,0.72-2.659,2.092-2.876c1.373-0.212,2.659,0.72,2.877,2.092
					c0.35,2.22,0.673,4.477,0.957,6.711c0.176,1.377-0.799,2.636-2.177,2.813c-0.108,0.013-0.215,0.02-0.321,0.02
					C2689.56,1204.497,2688.478,1203.57,2688.316,1202.3z M2686.246,1189.211c-0.41-2.161-0.858-4.347-1.331-6.495
					c-0.3-1.355,0.557-2.698,1.913-2.997c1.357-0.301,2.698,0.556,2.997,1.914c0.485,2.196,0.943,4.431,1.362,6.641
					c0.258,1.365-0.638,2.681-2.003,2.94c-0.158,0.03-0.315,0.043-0.47,0.043C2687.53,1191.257,2686.474,1190.417,2686.246,1189.211
					z M2683.387,1176.268c-0.537-2.126-1.115-4.279-1.72-6.401c-0.38-1.335,0.394-2.727,1.729-3.107
					c1.336-0.384,2.727,0.393,3.107,1.729c0.618,2.17,1.21,4.373,1.759,6.547c0.34,1.346-0.476,2.714-1.822,3.054
					c-0.207,0.053-0.414,0.077-0.617,0.077C2684.699,1178.167,2683.675,1177.407,2683.387,1176.268z M2679.757,1163.521
					c-0.662-2.087-1.368-4.202-2.099-6.288c-0.458-1.311,0.232-2.745,1.542-3.204c1.311-0.459,2.746,0.232,3.204,1.542
					c0.747,2.133,1.469,4.295,2.146,6.429c0.42,1.324-0.312,2.737-1.636,3.158c-0.253,0.08-0.509,0.118-0.761,0.118
					C2681.086,1165.275,2680.097,1164.591,2679.757,1163.521z M2675.375,1151.007c-0.783-2.045-1.611-4.117-2.461-6.157
					c-0.534-1.282,0.072-2.754,1.354-3.288c1.283-0.531,2.754,0.073,3.288,1.355c0.868,2.085,1.715,4.202,2.515,6.292
					c0.497,1.297-0.152,2.751-1.449,3.248c-0.296,0.113-0.6,0.167-0.899,0.167
					C2676.713,1152.622,2675.759,1152.007,2675.375,1151.007z M2670.278,1138.763c-0.9-2.001-1.844-4.023-2.804-6.012
					c-0.605-1.25-0.081-2.754,1.169-3.359c1.251-0.603,2.754-0.079,3.358,1.17c0.981,2.03,1.945,4.095,2.864,6.138
					c0.57,1.267,0.004,2.755-1.262,3.325c-0.334,0.151-0.685,0.222-1.03,0.222
					C2671.613,1140.247,2670.697,1139.695,2670.278,1138.763z M2664.505,1126.817c-1.005-1.945-2.057-3.914-3.125-5.854
					c-0.67-1.217-0.228-2.746,0.989-3.416c1.216-0.669,2.746-0.227,3.416,0.989c1.091,1.979,2.163,3.988,3.188,5.971
					c0.638,1.234,0.155,2.751-1.079,3.388c-0.369,0.191-0.764,0.282-1.153,0.282
					C2665.831,1128.177,2664.952,1127.681,2664.505,1126.817z M2658.101,1115.189c-1.102-1.885-2.255-3.799-3.425-5.689
					c-0.731-1.181-0.366-2.731,0.814-3.462c1.181-0.731,2.73-0.365,3.462,0.814c1.192,1.926,2.367,3.877,3.49,5.798
					c0.701,1.198,0.297,2.739-0.902,3.44c-0.399,0.233-0.836,0.345-1.267,0.345
					C2659.41,1116.435,2658.569,1115.989,2658.101,1115.189z M2651.111,1103.895c-1.198-1.834-2.442-3.692-3.699-5.52
					c-0.787-1.144-0.497-2.71,0.647-3.496c1.145-0.788,2.71-0.496,3.497,0.648c1.279,1.86,2.545,3.75,3.765,5.618
					c0.76,1.163,0.433,2.721-0.73,3.48c-0.424,0.277-0.901,0.41-1.373,0.41C2652.398,1105.035,2651.593,1104.634,2651.111,1103.895z
					 M2643.585,1092.943c-1.287-1.783-2.616-3.581-3.95-5.347c-0.838-1.108-0.618-2.685,0.489-3.522
					c1.109-0.838,2.686-0.618,3.522,0.49c1.357,1.795,2.708,3.624,4.016,5.436c0.813,1.126,0.559,2.698-0.567,3.511
					c-0.445,0.321-0.96,0.476-1.47,0.476C2644.845,1093.986,2644.076,1093.625,2643.585,1092.943z M2635.568,1082.336
					c-1.355-1.714-2.761-3.455-4.179-5.176c-0.884-1.072-0.731-2.656,0.34-3.54c1.072-0.884,2.657-0.731,3.54,0.34
					c1.44,1.747,2.869,3.516,4.245,5.257c0.861,1.09,0.676,2.671-0.414,3.532c-0.462,0.365-1.012,0.542-1.558,0.542
					C2636.799,1083.291,2636.064,1082.963,2635.568,1082.336z M2627.105,1072.07c-1.434-1.669-2.896-3.338-4.386-5.006
					c-0.925-1.035-0.835-2.625,0.2-3.55c1.036-0.926,2.625-0.835,3.55,0.2c1.512,1.693,2.995,3.385,4.45,5.079
					c0.905,1.053,0.784,2.641-0.269,3.546c-0.475,0.408-1.057,0.607-1.638,0.607
					C2628.306,1072.946,2627.602,1072.649,2627.105,1072.07z M2618.237,1062.143c-1.498-1.614-3.022-3.227-4.573-4.84
					c-0.963-1.001-0.932-2.592,0.069-3.555c1-0.964,2.593-0.932,3.555,0.068c1.573,1.634,3.118,3.269,4.636,4.906
					c0.945,1.018,0.885,2.609-0.133,3.554c-0.484,0.449-1.097,0.671-1.71,0.671
					C2619.406,1062.947,2618.733,1062.677,2618.237,1062.143z M2609.005,1052.545c-1.556-1.561-3.136-3.12-4.743-4.678
					c-0.997-0.967-1.021-2.559-0.054-3.556c0.967-0.997,2.559-1.02,3.556-0.054c1.627,1.578,3.228,3.157,4.803,4.738
					c0.981,0.984,0.978,2.576-0.005,3.556c-0.491,0.489-1.133,0.734-1.775,0.734
					C2610.141,1053.285,2609.496,1053.038,2609.005,1052.545z M2599.441,1043.268c-1.607-1.509-3.239-3.016-4.895-4.522
					c-1.027-0.934-1.103-2.525-0.168-3.552c0.935-1.028,2.525-1.102,3.552-0.168c1.676,1.524,3.328,3.05,4.953,4.577
					c1.013,0.95,1.062,2.542,0.112,3.554c-0.495,0.527-1.163,0.794-1.834,0.794
					C2600.545,1043.949,2599.926,1043.724,2599.441,1043.268z M2589.58,1034.298c-1.654-1.458-3.332-2.916-5.033-4.372
					c-1.055-0.903-1.178-2.491-0.275-3.546c0.904-1.055,2.49-1.179,3.546-0.275c1.72,1.473,3.417,2.947,5.089,4.422
					c1.042,0.919,1.141,2.508,0.223,3.549c-0.498,0.564-1.191,0.851-1.887,0.851
					C2590.652,1034.927,2590.058,1034.719,2589.58,1034.298z M2579.451,1025.625c-1.697-1.41-3.416-2.821-5.158-4.229
					c-1.08-0.873-1.248-2.457-0.374-3.536c0.874-1.08,2.458-1.247,3.536-0.374c1.76,1.423,3.497,2.847,5.211,4.273
					c1.068,0.888,1.214,2.473,0.326,3.541c-0.497,0.599-1.213,0.907-1.935,0.907
					C2580.491,1026.206,2579.921,1026.016,2579.451,1025.625z M2569.062,1017.129c-1.735-1.455-3.46-2.948-5.128-4.441
					c-1.035-0.926-1.124-2.516-0.198-3.551c0.927-1.035,2.516-1.123,3.551-0.198c1.629,1.457,3.314,2.916,5.007,4.336
					c1.064,0.893,1.204,2.479,0.311,3.542c-0.498,0.593-1.21,0.899-1.928,0.899
					C2570.106,1017.717,2569.533,1017.524,2569.062,1017.129z M2558.951,1008.083c-1.635-1.561-3.26-3.166-4.83-4.771
					c-0.972-0.992-0.954-2.584,0.038-3.556c0.992-0.972,2.584-0.956,3.556,0.038c1.531,1.564,3.115,3.129,4.709,4.651
					c1.004,0.959,1.041,2.551,0.082,3.555c-0.494,0.517-1.156,0.778-1.819,0.778
					C2560.063,1008.779,2559.438,1008.548,2558.951,1008.083z M2549.455,998.381c-1.527-1.67-3.039-3.383-4.494-5.091
					c-0.901-1.057-0.774-2.644,0.283-3.545c1.058-0.901,2.645-0.774,3.545,0.283c1.417,1.664,2.891,3.332,4.378,4.96
					c0.937,1.025,0.866,2.616-0.159,3.553c-0.482,0.441-1.09,0.659-1.696,0.659C2550.631,999.2,2549.951,998.924,2549.455,998.381z
					 M2540.646,988.043c-1.401-1.767-2.79-3.583-4.125-5.398c-0.823-1.118-0.584-2.693,0.534-3.516
					c1.119-0.823,2.693-0.584,3.516,0.535c1.301,1.766,2.651,3.535,4.015,5.255c0.863,1.088,0.68,2.67-0.408,3.533
					c-0.462,0.367-1.013,0.545-1.561,0.545C2541.877,988.996,2541.143,988.67,2540.646,988.043z M2532.594,977.102
					c-1.27-1.863-2.524-3.775-3.725-5.683c-0.74-1.175-0.387-2.728,0.788-3.468c1.177-0.74,2.729-0.388,3.468,0.788
					c1.169,1.857,2.389,3.717,3.625,5.53c0.783,1.147,0.486,2.712-0.661,3.494c-0.433,0.296-0.926,0.437-1.414,0.437
					C2533.87,978.2,2533.08,977.816,2532.594,977.102z M2525.353,965.603c-1.128-1.946-2.239-3.945-3.299-5.941
					c-0.652-1.226-0.187-2.749,1.04-3.401c1.227-0.652,2.749-0.186,3.401,1.039c1.032,1.942,2.113,3.887,3.21,5.78
					c0.697,1.201,0.287,2.74-0.915,3.436c-0.397,0.23-0.831,0.34-1.258,0.34C2526.663,966.857,2525.82,966.407,2525.353,965.603z
					 M2518.979,953.614c-0.986-2.032-1.946-4.104-2.852-6.156c-0.561-1.27,0.014-2.755,1.284-3.316
					c1.272-0.561,2.756,0.014,3.316,1.285c0.882,1.998,1.816,4.014,2.776,5.992c0.606,1.25,0.085,2.754-1.165,3.36
					c-0.354,0.172-0.728,0.253-1.096,0.253C2520.31,955.032,2519.413,954.51,2518.979,953.614z M2513.497,941.199
					c-0.833-2.09-1.64-4.226-2.401-6.349c-0.468-1.308,0.213-2.747,1.52-3.215c1.309-0.468,2.747,0.212,3.215,1.52
					c0.74,2.067,1.526,4.147,2.337,6.182c0.515,1.29-0.115,2.753-1.405,3.266c-0.305,0.122-0.621,0.18-0.93,0.18
					C2514.834,942.783,2513.89,942.184,2513.497,941.199z M2508.922,928.419c-0.683-2.145-1.338-4.334-1.947-6.504
					c-0.375-1.338,0.405-2.725,1.742-3.1c1.34-0.379,2.726,0.405,3.1,1.742c0.593,2.115,1.231,4.247,1.896,6.337
					c0.421,1.323-0.31,2.737-1.633,3.159c-0.254,0.081-0.511,0.119-0.763,0.119C2510.252,930.172,2509.262,929.489,2508.922,928.419
					z M2505.255,915.347c-0.532-2.183-1.035-4.411-1.495-6.623c-0.283-1.36,0.59-2.691,1.949-2.974
					c1.359-0.285,2.691,0.59,2.974,1.949c0.449,2.156,0.94,4.328,1.458,6.456c0.329,1.349-0.498,2.71-1.847,3.038
					c-0.2,0.049-0.4,0.072-0.598,0.072C2506.563,917.267,2505.535,916.496,2505.255,915.347z M2502.487,902.055
					c-0.385-2.216-0.74-4.473-1.053-6.706c-0.194-1.375,0.765-2.647,2.14-2.84c1.37-0.191,2.647,0.764,2.84,2.14
					c0.307,2.18,0.653,4.382,1.029,6.545c0.238,1.368-0.679,2.67-2.047,2.908c-0.146,0.025-0.291,0.038-0.434,0.038
					C2503.761,904.14,2502.699,903.278,2502.487,902.055z M2500.595,888.614c-0.241-2.225-0.452-4.499-0.626-6.758
					c-0.106-1.385,0.929-2.594,2.314-2.701c1.381-0.108,2.594,0.929,2.701,2.314c0.17,2.208,0.376,4.43,0.611,6.603
					c0.15,1.381-0.848,2.621-2.229,2.771c-0.092,0.01-0.184,0.015-0.274,0.015C2501.825,890.857,2500.735,889.902,2500.595,888.614z
					 M2499.551,875.083c-0.105-2.235-0.177-4.516-0.216-6.781c-0.024-1.389,1.083-2.534,2.472-2.557
					c1.37-0.016,2.533,1.082,2.557,2.472c0.038,2.216,0.109,4.447,0.211,6.632c0.065,1.387-1.007,2.564-2.395,2.629
					c-0.04,0.002-0.08,0.003-0.119,0.003C2500.726,877.481,2499.613,876.43,2499.551,875.083z M2501.802,864.061
					c-1.389-0.016-2.501-1.155-2.484-2.544c0.026-2.247,0.085-4.527,0.175-6.778c0.056-1.388,1.242-2.451,2.613-2.412
					c1.388,0.056,2.468,1.226,2.412,2.613c-0.088,2.204-0.146,4.436-0.172,6.636c-0.016,1.378-1.138,2.485-2.514,2.485
					C2501.822,864.062,2501.812,864.062,2501.802,864.061z M2502.198,850.64c-1.386-0.093-2.434-1.292-2.34-2.677
					c0.15-2.228,0.333-4.499,0.546-6.751c0.13-1.383,1.365-2.406,2.74-2.267c1.383,0.13,2.398,1.357,2.267,2.74
					c-0.208,2.207-0.389,4.433-0.536,6.616c-0.089,1.328-1.195,2.346-2.506,2.346
					C2502.313,850.646,2502.255,850.644,2502.198,850.64z M2503.323,837.278c-1.379-0.167-2.361-1.419-2.195-2.798
					c0.269-2.227,0.572-4.485,0.898-6.709c0.202-1.374,1.481-2.326,2.853-2.123c1.374,0.202,2.324,1.479,2.123,2.853
					c-0.321,2.182-0.617,4.397-0.881,6.583c-0.155,1.276-1.239,2.213-2.493,2.213
					C2503.528,837.296,2503.426,837.29,2503.323,837.278z M2505.145,823.991c-1.369-0.235-2.287-1.536-2.052-2.905
					c0.378-2.193,0.792-4.432,1.23-6.654c0.269-1.363,1.592-2.247,2.954-1.98c1.362,0.269,2.249,1.591,1.98,2.954
					c-0.431,2.182-0.838,4.38-1.208,6.533c-0.211,1.224-1.274,2.088-2.475,2.088
					C2505.433,824.028,2505.289,824.016,2505.145,823.991z M2507.623,810.812c-1.355-0.301-2.21-1.645-1.909-3.001
					c0.488-2.191,1.008-4.407,1.546-6.586c0.334-1.348,1.7-2.169,3.044-1.837c1.348,0.333,2.171,1.696,1.837,3.044
					c-0.529,2.141-1.04,4.318-1.519,6.472c-0.261,1.172-1.3,1.969-2.452,1.969C2507.99,810.872,2507.807,810.852,2507.623,810.812z
					 M2510.727,797.763c-1.34-0.364-2.132-1.745-1.769-3.086c0.585-2.158,1.206-4.347,1.845-6.507
					c0.394-1.332,1.795-2.091,3.124-1.698c1.332,0.393,2.093,1.792,1.698,3.124c-0.628,2.123-1.238,4.276-1.813,6.398
					c-0.304,1.12-1.318,1.857-2.426,1.857C2511.169,797.852,2510.947,797.823,2510.727,797.763z M2514.428,784.847
					c-1.323-0.423-2.052-1.838-1.63-3.161c0.681-2.13,1.4-4.297,2.137-6.439c0.452-1.313,1.881-2.013,3.196-1.559
					c1.313,0.451,2.011,1.883,1.559,3.196c-0.725,2.107-1.432,4.239-2.102,6.334c-0.342,1.068-1.33,1.749-2.395,1.749
					C2514.941,784.966,2514.683,784.928,2514.428,784.847z M2518.701,772.086c-1.303-0.48-1.971-1.925-1.491-3.229
					c0.778-2.114,1.589-4.246,2.408-6.336c0.507-1.293,1.966-1.928,3.26-1.423c1.292,0.507,1.929,1.966,1.423,3.259
					c-0.807,2.058-1.605,4.156-2.371,6.237c-0.374,1.017-1.336,1.646-2.36,1.646
					C2519.282,772.241,2518.988,772.191,2518.701,772.086z M2523.513,759.527c-1.282-0.534-1.888-2.006-1.354-3.288
					c0.861-2.069,1.759-4.164,2.667-6.226c0.56-1.271,2.045-1.848,3.315-1.288c1.271,0.56,1.847,2.044,1.288,3.315
					c-0.895,2.031-1.779,4.094-2.627,6.132c-0.402,0.966-1.337,1.549-2.322,1.549
					C2524.157,759.721,2523.829,759.658,2523.513,759.527z M2528.839,747.186c-1.259-0.586-1.805-2.082-1.22-3.341
					c0.947-2.036,1.928-4.09,2.917-6.108c0.611-1.247,2.118-1.763,3.365-1.152c1.247,0.611,1.763,2.117,1.152,3.365
					c-0.974,1.987-1.94,4.011-2.873,6.016c-0.427,0.916-1.334,1.455-2.282,1.455
					C2529.543,747.421,2529.182,747.345,2528.839,747.186z M3110.603,735.903c-0.012-0.02-1.21-2.028-3.611-5.515
					c-0.787-1.144-0.499-2.71,0.645-3.497c1.144-0.789,2.71-0.499,3.498,0.645c2.509,3.644,3.741,5.713,3.793,5.799
					c0.709,1.194,0.316,2.736-0.878,3.445c-0.403,0.24-0.845,0.353-1.282,0.353C3111.909,737.133,3111.073,736.694,3110.603,735.903
					z M2534.657,735.078c-1.235-0.636-1.721-2.152-1.085-3.387c1.032-2.004,2.084-3.998,3.155-5.981
					c0.66-1.222,2.187-1.677,3.408-1.017c1.222,0.66,1.677,2.186,1.018,3.407c-1.056,1.954-2.092,3.919-3.109,5.893
					c-0.446,0.867-1.326,1.364-2.238,1.364C2535.418,735.358,2535.025,735.268,2534.657,735.078z M3103.13,724.976
					c-1.282-1.739-2.635-3.524-4.021-5.303c-0.854-1.096-0.657-2.676,0.438-3.529c1.095-0.853,2.676-0.657,3.529,0.438
					c1.414,1.815,2.794,3.635,4.102,5.411c0.824,1.118,0.585,2.692-0.533,3.516c-0.448,0.331-0.971,0.49-1.489,0.49
					C3104.385,725.999,3103.623,725.645,3103.13,724.976z M2540.948,723.222c-1.208-0.684-1.634-2.218-0.95-3.427
					c1.109-1.961,2.238-3.91,3.385-5.848c0.708-1.195,2.251-1.591,3.445-0.883c1.195,0.707,1.59,2.25,0.883,3.445
					c-1.131,1.909-2.242,3.83-3.336,5.763c-0.462,0.817-1.314,1.277-2.191,1.277C2541.765,723.549,2541.34,723.444,2540.948,723.222
					z M3094.954,714.471c-1.379-1.685-2.818-3.403-4.276-5.106c-0.903-1.055-0.78-2.643,0.275-3.546
					c1.056-0.904,2.643-0.78,3.546,0.275c1.482,1.731,2.944,3.478,4.347,5.192c0.88,1.075,0.721,2.659-0.354,3.538
					c-0.467,0.383-1.031,0.569-1.591,0.569C3096.173,715.393,3095.451,715.078,3094.954,714.471z M2547.696,711.631
					c-1.181-0.731-1.546-2.281-0.815-3.462c1.185-1.915,2.388-3.817,3.61-5.706c0.754-1.167,2.31-1.501,3.477-0.746
					c1.166,0.754,1.5,2.311,0.746,3.477c-1.203,1.861-2.389,3.736-3.556,5.622c-0.476,0.769-1.298,1.192-2.141,1.192
					C2548.565,712.008,2548.109,711.886,2547.696,711.631z M3086.292,704.354c-1.471-1.646-2.982-3.3-4.491-4.919
					c-0.947-1.016-0.891-2.607,0.125-3.554c1.016-0.946,2.607-0.891,3.554,0.125c1.532,1.644,3.066,3.325,4.561,4.995
					c0.926,1.035,0.836,2.625-0.199,3.551c-0.48,0.429-1.078,0.64-1.675,0.64C3087.476,705.193,3086.788,704.909,3086.292,704.354z
					 M2554.889,700.323c-1.152-0.776-1.455-2.339-0.679-3.491c1.258-1.866,2.535-3.718,3.828-5.555
					c0.799-1.136,2.368-1.408,3.503-0.61c1.136,0.799,1.409,2.368,0.609,3.504c-1.274,1.811-2.531,3.635-3.771,5.473
					c-0.486,0.72-1.279,1.109-2.088,1.109C2555.809,700.753,2555.32,700.614,2554.889,700.323z M3077.211,694.607
					c-1.508-1.555-3.07-3.135-4.685-4.736c-0.986-0.978-0.993-2.57-0.015-3.556c0.977-0.985,2.57-0.992,3.556-0.015
					c1.639,1.625,3.224,3.228,4.754,4.805c0.967,0.997,0.943,2.589-0.054,3.556c-0.489,0.474-1.12,0.71-1.751,0.71
					C3078.359,695.371,3077.704,695.115,3077.211,694.607z M2562.511,689.316c-1.12-0.821-1.361-2.395-0.54-3.515
					c1.331-1.814,2.677-3.613,4.042-5.396c0.844-1.104,2.422-1.315,3.524-0.471c1.104,0.843,1.314,2.422,0.47,3.525
					c-1.343,1.757-2.67,3.53-3.981,5.317c-0.493,0.671-1.256,1.027-2.03,1.027C2563.481,689.803,2562.96,689.644,2562.511,689.316z
					 M3067.751,685.226c-1.575-1.503-3.196-3.022-4.863-4.552c-1.023-0.94-1.091-2.53-0.152-3.553
					c0.939-1.023,2.53-1.09,3.553-0.151c1.691,1.553,3.335,3.094,4.933,4.618c1.005,0.958,1.042,2.551,0.083,3.555
					c-0.494,0.518-1.156,0.779-1.82,0.779C3068.862,685.921,3068.238,685.69,3067.751,685.226z M2570.559,678.626
					c-1.086-0.865-1.265-2.448-0.4-3.534c1.393-1.748,2.823-3.507,4.25-5.226c0.887-1.068,2.471-1.217,3.541-0.328
					c1.068,0.887,1.215,2.473,0.328,3.541c-1.406,1.693-2.814,3.425-4.186,5.147c-0.497,0.623-1.229,0.948-1.968,0.948
					C2571.575,679.174,2571.022,678.994,2570.559,678.626z M3057.94,676.212c-1.637-1.448-3.313-2.904-5.031-4.368
					c-1.057-0.901-1.184-2.488-0.284-3.545c0.9-1.057,2.488-1.185,3.545-0.284c1.742,1.484,3.442,2.961,5.102,4.429
					c1.04,0.92,1.138,2.51,0.217,3.55c-0.497,0.562-1.189,0.849-1.885,0.849C3059.013,676.844,3058.418,676.636,3057.94,676.212z
					 M2579.019,668.276c-1.05-0.908-1.165-2.496-0.256-3.547c1.465-1.693,2.971-3.398,4.475-5.065
					c0.931-1.03,2.521-1.113,3.551-0.182c1.032,0.93,1.114,2.52,0.183,3.551c-1.481,1.642-2.964,3.32-4.406,4.988
					c-0.498,0.575-1.198,0.869-1.903,0.869C2580.081,668.89,2579.495,668.688,2579.019,668.276z M3047.799,667.571
					c-1.692-1.39-3.421-2.783-5.187-4.179c-1.09-0.861-1.275-2.443-0.414-3.532c0.862-1.091,2.444-1.274,3.532-0.414
					c1.791,1.415,3.544,2.829,5.261,4.237c1.073,0.88,1.229,2.465,0.348,3.539c-0.497,0.606-1.218,0.919-1.945,0.919
					C3048.832,668.141,3048.267,667.954,3047.799,667.571z M3037.348,659.308c-1.745-1.329-3.524-2.659-5.337-3.988
					c-1.12-0.821-1.362-2.395-0.541-3.515c0.822-1.12,2.396-1.362,3.514-0.54c1.837,1.347,3.64,2.694,5.409,4.041
					c1.105,0.842,1.319,2.419,0.478,3.524c-0.495,0.65-1.244,0.992-2.003,0.992C3038.339,659.822,3037.803,659.655,3037.348,659.308
					z M2587.927,658.248c-1.011-0.952-1.06-2.543-0.108-3.554c1.541-1.637,3.116-3.277,4.685-4.874
					c0.975-0.992,2.566-1.004,3.556-0.033c0.991,0.973,1.005,2.565,0.032,3.556c-1.543,1.572-3.095,3.186-4.611,4.797
					c-0.494,0.526-1.162,0.792-1.832,0.792C2589.032,658.932,2588.413,658.705,2587.927,658.248z M3026.604,651.431
					c-1.794-1.266-3.62-2.531-5.476-3.791c-1.149-0.78-1.448-2.343-0.668-3.493c0.78-1.149,2.344-1.449,3.493-0.668
					c1.882,1.278,3.733,2.559,5.552,3.843c1.135,0.801,1.405,2.37,0.604,3.504c-0.49,0.694-1.266,1.065-2.056,1.065
					C3027.55,651.891,3027.045,651.742,3026.604,651.431z M2597.251,648.603c-0.97-0.994-0.949-2.586,0.045-3.556
					c1.607-1.567,3.254-3.137,4.894-4.667c1.016-0.947,2.606-0.892,3.554,0.124c0.947,1.016,0.892,2.607-0.124,3.555
					c-1.614,1.505-3.233,3.049-4.814,4.59c-0.489,0.477-1.122,0.714-1.755,0.714
					C2598.397,649.363,2597.743,649.109,2597.251,648.603z M3015.583,643.946c-1.841-1.203-3.711-2.401-5.609-3.593
					c-1.176-0.739-1.531-2.291-0.792-3.467c0.738-1.176,2.29-1.531,3.467-0.792c1.924,1.209,3.819,2.423,5.684,3.641
					c1.163,0.76,1.49,2.318,0.73,3.48c-0.483,0.739-1.287,1.14-2.108,1.14C3016.484,644.356,3016.008,644.224,3015.583,643.946z
					 M2606.983,639.373c-0.924-1.037-0.832-2.627,0.205-3.55c1.692-1.507,3.409-3.002,5.102-4.442
					c1.059-0.901,2.646-0.772,3.545,0.287c0.899,1.058,0.771,2.645-0.287,3.544c-1.665,1.416-3.353,2.884-5.015,4.366
					c-0.479,0.427-1.077,0.637-1.672,0.637C2608.169,640.216,2607.48,639.931,2606.983,639.373z M3004.302,636.861
					c-1.885-1.136-3.796-2.267-5.734-3.39c-1.201-0.697-1.611-2.236-0.914-3.437c0.696-1.2,2.235-1.612,3.437-0.914
					c1.963,1.138,3.9,2.283,5.809,3.435c1.189,0.718,1.572,2.263,0.854,3.452c-0.472,0.783-1.303,1.216-2.156,1.216
					C3005.156,637.223,3004.708,637.107,3004.302,636.861z M2617.125,630.597c-0.875-1.079-0.709-2.662,0.37-3.536
					c1.746-1.415,3.532-2.828,5.309-4.198c1.099-0.848,2.679-0.644,3.527,0.456c0.848,1.099,0.644,2.679-0.456,3.527
					c-1.744,1.345-3.498,2.732-5.213,4.122c-0.466,0.377-1.025,0.561-1.582,0.561
					C2618.348,631.528,2617.622,631.21,2617.125,630.597z M2992.776,630.183c-1.925-1.07-3.875-2.133-5.85-3.186
					c-1.226-0.654-1.689-2.177-1.036-3.402c0.654-1.227,2.177-1.69,3.402-1.036c2.002,1.067,3.978,2.144,5.927,3.228
					c1.214,0.675,1.651,2.206,0.976,3.42c-0.46,0.827-1.317,1.293-2.2,1.293C2993.582,630.5,2993.163,630.398,2992.776,630.183z
					 M2981.02,623.916c-1.962-1.003-3.948-1.996-5.958-2.977c-1.248-0.61-1.765-2.116-1.155-3.364
					c0.61-1.248,2.116-1.767,3.364-1.155c2.036,0.996,4.049,2.002,6.037,3.017c1.236,0.632,1.727,2.146,1.095,3.383
					c-0.445,0.87-1.327,1.371-2.241,1.371C2981.777,624.192,2981.386,624.103,2981.02,623.916z M2627.673,622.31
					c-0.82-1.121-0.577-2.694,0.544-3.514c1.824-1.335,3.679-2.657,5.514-3.929c1.14-0.791,2.707-0.507,3.499,0.634
					c0.791,1.141,0.508,2.708-0.634,3.499c-1.8,1.248-3.62,2.544-5.409,3.854c-0.448,0.328-0.968,0.486-1.483,0.486
					C2628.929,623.34,2628.165,622.983,2627.673,622.31z M2969.053,618.066c-1.997-0.933-4.016-1.856-6.059-2.767
					c-1.268-0.566-1.838-2.053-1.272-3.321c0.566-1.269,2.056-1.838,3.321-1.272c2.07,0.924,4.116,1.859,6.138,2.804
					c1.259,0.587,1.802,2.084,1.214,3.342c-0.427,0.914-1.333,1.451-2.28,1.451C2969.759,618.303,2969.397,618.226,2969.053,618.066
					z M2638.621,614.562c-0.761-1.162-0.436-2.721,0.727-3.481c1.892-1.239,3.815-2.461,5.716-3.634
					c1.181-0.728,2.73-0.362,3.46,0.82c0.729,1.182,0.362,2.732-0.82,3.461c-1.863,1.148-3.747,2.347-5.602,3.561
					c-0.425,0.278-0.902,0.411-1.375,0.411C2639.907,615.7,2639.103,615.299,2638.621,614.562z M2956.887,612.636
					c-2.029-0.864-4.079-1.716-6.151-2.557c-1.287-0.522-1.907-1.989-1.385-3.276c0.522-1.286,1.989-1.907,3.276-1.385
					c2.099,0.852,4.176,1.715,6.23,2.59c1.278,0.544,1.873,2.021,1.329,3.299c-0.408,0.956-1.337,1.53-2.315,1.53
					C2957.542,612.837,2957.208,612.772,2956.887,612.636z M2649.963,607.407c-0.696-1.202-0.285-2.74,0.917-3.436
					c1.952-1.13,3.943-2.244,5.915-3.31c1.221-0.659,2.747-0.206,3.408,1.016c0.66,1.222,0.205,2.748-1.016,3.408
					c-1.93,1.043-3.878,2.133-5.788,3.238c-0.397,0.229-0.83,0.339-1.257,0.339C2651.274,608.663,2650.429,608.213,2649.963,607.407
					z M2944.542,607.628c-2.057-0.794-4.136-1.576-6.235-2.345c-1.304-0.478-1.973-1.923-1.495-3.227
					c0.478-1.304,1.924-1.974,3.227-1.495c2.126,0.779,4.23,1.571,6.314,2.375c1.296,0.5,1.941,1.955,1.441,3.251
					c-0.385,0.998-1.337,1.61-2.346,1.61C2945.146,607.797,2944.84,607.743,2944.542,607.628z M2932.033,603.045
					c-2.084-0.724-4.188-1.435-6.312-2.133c-1.319-0.434-2.038-1.855-1.604-3.174c0.434-1.32,1.857-2.038,3.174-1.604
					c2.15,0.707,4.281,1.427,6.391,2.16c1.312,0.456,2.006,1.888,1.551,3.2c-0.361,1.039-1.335,1.69-2.376,1.69
					C2932.584,603.185,2932.306,603.14,2932.033,603.045z M2661.69,600.902c-0.624-1.241-0.123-2.752,1.118-3.376
					c2.026-1.017,4.081-2.01,6.106-2.95c1.258-0.586,2.754-0.038,3.34,1.222c0.585,1.26,0.038,2.755-1.222,3.34
					c-1.979,0.919-3.987,1.889-5.967,2.883c-0.362,0.182-0.747,0.268-1.126,0.268C2663.018,602.288,2662.131,601.78,2661.69,600.902
					z M2919.375,598.884c-2.108-0.654-4.234-1.295-6.38-1.922c-1.333-0.39-2.097-1.786-1.708-3.12
					c0.39-1.332,1.787-2.099,3.119-1.708c2.172,0.635,4.325,1.284,6.458,1.946c1.327,0.412,2.068,1.821,1.657,3.147
					c-0.335,1.079-1.328,1.77-2.401,1.77C2919.874,598.998,2919.623,598.961,2919.375,598.884z M2673.785,595.115
					c-0.544-1.278,0.051-2.755,1.329-3.299c2.08-0.885,4.195-1.745,6.288-2.555c1.294-0.503,2.752,0.142,3.253,1.437
					c0.502,1.295-0.142,2.751-1.437,3.253c-2.042,0.791-4.105,1.629-6.134,2.493c-0.321,0.137-0.655,0.201-0.984,0.201
					C2675.122,596.645,2674.192,596.072,2673.785,595.115z M2906.586,595.147c-2.128-0.584-4.275-1.155-6.439-1.711
					c-1.345-0.346-2.155-1.717-1.809-3.062c0.346-1.346,1.718-2.154,3.062-1.809c2.191,0.563,4.364,1.141,6.518,1.732
					c1.34,0.368,2.127,1.751,1.76,3.091c-0.307,1.116-1.319,1.849-2.424,1.849C2907.032,595.237,2906.808,595.208,2906.586,595.147z
					 M2893.679,591.828c-2.146-0.515-4.31-1.016-6.491-1.503c-1.355-0.302-2.209-1.647-1.907-3.002
					c0.302-1.355,1.647-2.211,3.002-1.907c2.208,0.493,4.398,1,6.571,1.521c1.35,0.324,2.182,1.682,1.858,3.033
					c-0.277,1.153-1.307,1.928-2.443,1.928C2894.074,591.898,2893.877,591.875,2893.679,591.828z M2686.227,590.12
					c-0.456-1.312,0.237-2.745,1.549-3.201c2.142-0.745,4.313-1.458,6.453-2.119c1.33-0.411,2.735,0.333,3.145,1.661
					c0.409,1.327-0.334,2.735-1.661,3.145c-2.084,0.643-4.198,1.338-6.285,2.064c-0.273,0.095-0.552,0.14-0.826,0.14
					C2687.562,591.808,2686.588,591.157,2686.227,590.12z M2880.672,588.924c-2.162-0.447-4.341-0.88-6.537-1.298
					c-1.364-0.26-2.259-1.577-1.999-2.941c0.26-1.365,1.581-2.258,2.941-2c2.221,0.423,4.426,0.861,6.613,1.313
					c1.36,0.281,2.235,1.612,1.954,2.972c-0.246,1.189-1.292,2.006-2.46,2.006C2881.015,588.976,2880.844,588.959,2880.672,588.924z
					 M2698.982,585.994c-0.36-1.341,0.435-2.721,1.776-3.081c2.198-0.59,4.417-1.142,6.597-1.64
					c1.354-0.309,2.702,0.537,3.011,1.891c0.309,1.354-0.538,2.702-1.891,3.012c-2.119,0.484-4.277,1.021-6.413,1.594
					c-0.219,0.059-0.438,0.087-0.654,0.087C2700.3,587.857,2699.284,587.117,2698.982,585.994z M2867.58,586.43
					c-2.176-0.379-4.368-0.745-6.575-1.096c-1.371-0.219-2.306-1.507-2.088-2.879c0.218-1.371,1.508-2.305,2.878-2.089
					c2.232,0.355,4.449,0.724,6.649,1.108c1.368,0.239,2.283,1.541,2.045,2.909c-0.213,1.222-1.275,2.083-2.474,2.083
					C2867.871,586.468,2867.726,586.455,2867.58,586.43z M2712.006,582.823c-0.256-1.365,0.644-2.679,2.008-2.935
					c2.238-0.419,4.495-0.796,6.711-1.119c1.37-0.203,2.651,0.75,2.851,2.125c0.201,1.374-0.75,2.651-2.125,2.851
					c-2.149,0.314-4.34,0.68-6.511,1.087c-0.156,0.029-0.312,0.043-0.466,0.043C2713.288,584.875,2712.232,584.031,2712.006,582.823
					z M2854.413,584.339c-2.186-0.313-4.388-0.612-6.605-0.896c-1.377-0.177-2.351-1.437-2.175-2.814
					c0.177-1.378,1.442-2.353,2.814-2.175c2.242,0.288,4.469,0.59,6.68,0.907c1.375,0.197,2.33,1.471,2.132,2.846
					c-0.18,1.254-1.255,2.158-2.486,2.158C2854.655,584.365,2854.534,584.356,2854.413,584.339z M2725.238,580.692
					c-0.15-1.381,0.848-2.621,2.229-2.771c2.243-0.243,4.476-0.472,6.697-0.688c1.388-0.135,2.612,0.878,2.745,2.26
					c0.134,1.382-0.878,2.611-2.26,2.745c-2.202,0.214-4.416,0.441-6.64,0.682c-0.092,0.01-0.183,0.015-0.274,0.015
					C2726.467,582.936,2725.377,581.981,2725.238,580.692z M2841.19,582.644c-2.195-0.248-4.405-0.482-6.63-0.701
					c-1.382-0.136-2.392-1.367-2.256-2.749c0.136-1.382,1.359-2.391,2.749-2.256c2.249,0.221,4.483,0.458,6.703,0.709
					c1.38,0.156,2.372,1.401,2.216,2.782c-0.145,1.284-1.234,2.232-2.495,2.232C2841.382,582.66,2841.286,582.655,2841.19,582.644z
					 M2738.576,579.342c-0.117-1.384,0.909-2.601,2.292-2.719c2.249-0.192,4.486-0.369,6.712-0.532
					c1.377-0.11,2.59,0.939,2.691,2.324c0.102,1.385-0.939,2.59-2.324,2.691c-2.206,0.162-4.424,0.338-6.653,0.527
					c-0.073,0.007-0.145,0.009-0.216,0.009C2739.787,581.643,2738.688,580.654,2738.576,579.342z M2827.92,581.337
					c-2.202-0.185-4.418-0.355-6.649-0.51c-1.385-0.097-2.43-1.298-2.333-2.684c0.096-1.385,1.285-2.432,2.684-2.333
					c2.253,0.157,4.493,0.329,6.719,0.516c1.384,0.116,2.411,1.332,2.295,2.716c-0.11,1.313-1.209,2.305-2.503,2.305
					C2828.063,581.346,2827.992,581.343,2827.92,581.337z M2751.943,578.302c-0.085-1.386,0.97-2.579,2.356-2.663
					c2.253-0.138,4.494-0.262,6.723-0.371c1.384-0.064,2.567,1.001,2.635,2.388c0.068,1.387-1.001,2.567-2.389,2.635
					c-2.209,0.108-4.43,0.231-6.663,0.367c-0.052,0.004-0.104,0.005-0.156,0.005
					C2753.132,580.663,2752.024,579.636,2751.943,578.302z M2814.616,580.41c-2.207-0.123-4.427-0.232-6.662-0.325
					c-1.387-0.058-2.465-1.23-2.407-2.618c0.058-1.387,1.237-2.474,2.617-2.407c2.259,0.094,4.502,0.204,6.732,0.328
					c1.387,0.077,2.448,1.264,2.371,2.651c-0.075,1.339-1.184,2.375-2.509,2.375C2814.711,580.414,2814.663,580.412,2814.616,580.41
					z M2765.33,577.585c-0.051-1.388,1.032-2.554,2.42-2.605c2.257-0.083,4.5-0.151,6.733-0.205c1.408-0.04,2.541,1.065,2.574,2.453
					c0.033,1.388-1.065,2.541-2.454,2.574c-2.21,0.053-4.433,0.121-6.668,0.203c-0.032,0.002-0.063,0.002-0.094,0.002
					C2766.496,580.007,2765.38,578.941,2765.33,577.585z M2801.288,579.851c-2.21-0.063-4.433-0.111-6.669-0.144
					c-1.388-0.02-2.498-1.163-2.477-2.551c0.02-1.376,1.142-2.478,2.513-2.478c0.013,0,0.025,0,0.038,0
					c2.259,0.033,4.505,0.082,6.737,0.145c1.388,0.039,2.481,1.196,2.442,2.585c-0.039,1.364-1.156,2.443-2.512,2.443
					C2801.336,579.852,2801.312,579.852,2801.288,579.851z M2778.733,577.197c-0.016-1.389,1.098-2.527,2.486-2.542
					c1.963-0.022,3.917-0.033,5.861-0.033l0.874,0c1.388,0.003,2.513,1.13,2.51,2.519c-0.002,1.387-1.128,2.51-2.515,2.51
					c-0.001,0-0.003,0-0.004,0l-0.865,0c-1.925,0-3.86,0.011-5.804,0.032c-0.01,0-0.019,0-0.029,0
					C2779.871,579.684,2778.749,578.576,2778.733,577.197z"/>
			</g>
			<g>
				<g>
					<path style="fill:#FF9792;" d="M2861.123,1373.73c0,0,1.544,1.655,4.415,4.748c10.49,11.373,38.976,42.289,70.335,77.843
						c7.397,8.391,15.015,17.115,22.634,25.834c11.374,13.142,22.526,26.281,32.905,38.98l0.109,0.108
						c3.204,3.754,6.183,7.399,9.164,11.041c6.185,7.62,11.926,14.907,17.226,21.754c15.899,20.756,27.05,37.539,29.15,46.041
						c12.696,53.11-12.035,202.612-18.441,239.158h346.924c-10.49-75.965-25.064-183.286-26.942-199.628
						c-2.871-25.728,86.898-136.142,88.443-216.746c1.437-80.492-51.784-138.128-60.176-217.406
						c-4.085-37.322,0.553-85.904,6.515-127.309c3.091-21.972,6.734-41.627,9.605-56.534c1.437-7.286-0.994-14.023-5.521-18.66
						c-1.215-1.213-2.54-2.428-3.975-3.203c-5.521-3.64-12.698-4.526-19.542-1.544c-19.875,8.504-41.958,31.028-47.701,87.227
						c0,0-16.672,10.489-43.613,27.603c-10.931,6.847-23.52,14.797-37.432,23.632c-10.709,6.733-22.194,14.022-34.227,21.641
						c-0.773,0.442-1.548,0.995-2.32,1.437c-4.858,3.089-9.606,6.181-14.685,9.383h-0.11c-1.766,1.103-3.535,2.319-5.411,3.425
						c-3.202,2.096-6.516,4.194-9.936,6.294c-0.662,0.44-1.326,0.881-2.1,1.214c-21.861,13.912-44.717,28.488-67.794,43.174h-0.11
						c-3.755,2.204-7.509,4.635-11.262,7.065c-2.871,1.876-5.853,3.641-8.834,5.52c-3.644,2.429-7.397,4.746-11.152,7.065h-0.111
						c-26.167,16.563-51.783,32.903-75.743,48.031c-3.754,2.429-7.51,4.747-11.152,7.065c-2.982,1.88-5.852,3.756-8.723,5.521
						c-3.865,2.428-7.398,4.747-11.041,7.179h-0.111c-45.712,28.817-81.045,51.341-93.963,59.623
						C2862.998,1372.515,2861.123,1373.62,2861.123,1373.73z"/>
					<path style="fill:#F7AAAA;" d="M3365.709,1058.739c-0.525,9.379,5.95,17.598,15.241,19.003l2.407,0.356
						c3.148-21.875,6.739-41.593,9.611-56.505c1.42-7.289,3.595-14.292,2.978-21.756c-15.096-7.386-20.904,10.47-22.76,17.714
						C3370.08,1029.328,3366.555,1045.172,3365.709,1058.739z"/>
				</g>
				<path style="fill:#FF7D78;" d="M2958.506,1482.155c11.374,13.142,22.526,26.281,32.905,38.98l0.109,0.108
					c3.204,3.754,6.183,7.399,9.164,11.041c6.185,7.62,11.926,14.907,17.226,21.754c15.899,20.756,27.05,37.539,29.15,46.041
					c12.696,53.11-12.035,202.612-18.441,239.158h225.689c-41.848-62.383-47.258-172.245-47.589-222.705
					c-0.11-12.701-4.197-27.936-10.822-44.055c-12.587-31.139-34.228-66.029-54.103-94.848
					c-18.328-26.719-35.222-48.14-42.068-56.642c0,0,0,0,0-0.11c-2.209-2.54-3.312-3.977-3.312-3.977l-124.768-5.299h-0.111
					l-1.656,8.833l-1.324,7.508l-5.741,31.138L2958.506,1482.155z"/>
				<g>
					<g>
						<path style="fill:#242E6C;" d="M2870.469,1538.802l373.414,38.591c11.708,1.21,22.276-7.379,23.487-19.086l77.174-746.744
							c1.21-11.707-7.379-22.276-19.086-23.486l-373.414-38.592c-11.708-1.21-22.276,7.379-23.486,19.087l-77.174,746.743
							C2850.173,1527.022,2858.761,1537.591,2870.469,1538.802z"/>
						<path style="fill:#C0D3F8;" d="M2830.146,1534.635l373.414,38.591c11.707,1.21,22.276-7.38,23.486-19.087l77.174-746.743
							c1.21-11.708-7.379-22.276-19.086-23.486l-373.415-38.592c-11.707-1.21-22.275,7.379-23.486,19.087l-77.175,746.743
							C2809.85,1522.855,2818.439,1533.424,2830.146,1534.635z"/>
						<g>
							<path style="fill:#242E6C;" d="M3029.734,791.963c0.239-2.313,2.328-4.012,4.642-3.772l108.135,11.176
								c2.314,0.24,4.013,2.328,3.773,4.642c-0.24,2.314-2.328,4.011-4.643,3.772l-108.136-11.176
								C3031.192,796.366,3029.494,794.277,3029.734,791.963z"/>
							<path style="fill:#242E6C;" d="M3161.716,801.352c2.315,0.238,4.013,2.328,3.774,4.641c-0.24,2.315-2.329,4.012-4.643,3.772
								c-2.314-0.239-4.012-2.328-3.773-4.641C3157.315,802.809,3159.403,801.112,3161.716,801.352z"/>
						</g>
						<path style="fill:#242E6C;" d="M2989.073,1506.982c1.55-14.986,14.953-25.88,29.939-24.33
							c14.988,1.547,25.88,14.953,24.332,29.938c-1.55,14.987-14.953,25.88-29.939,24.332
							C2998.417,1535.372,2987.525,1521.968,2989.073,1506.982z"/>
						
							<rect x="2885.558" y="825.548" transform="matrix(-0.9947 -0.1028 0.1028 -0.9947 5984.751 2601.3577)" style="fill:#FFFFFF;" width="347.698" height="641.831"/>
						
							<rect x="2856.392" y="1391.418" transform="matrix(-0.9947 -0.1028 0.1028 -0.9947 5897.5649 3161.2781)" style="fill:#242E6C;" width="347.699" height="74.507"/>
						<g>
							<path style="fill:#CF5FE0;" d="M3095.632,1424.394l-178.496-18.447c-2.063-0.214-3.577-2.076-3.364-4.14
								c0.214-2.063,2.077-3.577,4.139-3.363l178.496,18.447c2.064,0.213,3.578,2.076,3.365,4.139l0,0
								C3099.558,1423.094,3097.696,1424.607,3095.632,1424.394z"/>
							<path style="fill:#CF5FE0;" d="M2912.074,1418.245c0.213-2.063,2.075-3.577,4.139-3.364l178.496,18.446
								c2.064,0.214,3.577,2.076,3.365,4.141c-0.214,2.063-2.076,3.576-4.141,3.364l-178.494-18.448
								C2913.374,1422.171,2911.861,1420.308,2912.074,1418.245z"/>
						</g>
						<path style="fill:#F24B46;" d="M3144.335,1455.878c0,0,28.598-28.488,30.032-42.397c0.22-2.539,0.11-4.971-0.33-7.399
							c-1.989-10.821-10.932-19.434-22.416-20.646c-11.482-1.216-21.971,5.41-26.057,15.679c-0.993,2.208-1.656,4.524-1.876,7.068
							C3122.251,1422.201,3144.335,1455.878,3144.335,1455.878z M3137.158,1409.283c0.333-2.649,1.435-4.968,3.093-6.736
							c2.427-2.76,6.072-4.305,10.046-3.863c3.866,0.441,7.178,2.65,9.055,5.852c1.214,2.098,1.765,4.637,1.544,7.287
							c-0.661,6.516-6.514,11.262-13.028,10.6C3141.243,1421.762,3136.496,1415.907,3137.158,1409.283z"/>
						<g>
							
								<rect x="3007.981" y="924.718" transform="matrix(0.9947 0.1028 -0.1028 0.9947 120.0279 -314.1944)" style="fill:#7F22BA;" width="200.481" height="165.309"/>
							
								<rect x="2941.637" y="914.321" transform="matrix(0.1028 -0.9947 0.9947 0.1028 1719.9957 3904.3062)" style="fill:#C643DB;" width="165.309" height="168.756"/>
							<polygon style="fill:#9E30CA;" points="2936.174,1030.541 2931.864,1072.242 3099.726,1089.59 3116.719,925.157 							"/>
							<polygon style="fill:#CF5FE0;" points="3203.627,1058.181 3172.028,1054.915 3175.731,1046.312 3173.604,1039.669 
								3205.204,1042.936 							"/>
							<polygon style="fill:#CF5FE0;" points="3210.472,991.953 3178.872,988.688 3182.575,980.083 3180.448,973.441 
								3212.048,976.707 							"/>
							<polygon style="fill:#9E30CA;" points="2943.018,964.313 2974.618,967.578 2972.753,958.398 2976.192,952.333 
								2944.593,949.067 							"/>
						</g>
					</g>
					<g>
						<g>
							<g>
								<path style="fill:#CF5FE0;" d="M3159.684,1162.394c-0.773,6.958,1.987,13.473,6.733,17.668
									c3.203,3.203,7.4,5.189,12.147,5.63c11.594,1.217,22.084-7.286,23.297-18.88c0.331-2.981,0-5.852-0.882-8.502
									c-2.431-7.839-9.387-13.912-17.999-14.797c-3.643-0.329-7.176,0.221-10.268,1.438c-1.214,0.552-2.319,1.102-3.313,1.765
									C3164.1,1150.03,3160.345,1155.772,3159.684,1162.394z M3162.113,1162.727c0.55-5.739,3.754-10.599,8.171-13.581
									c1.104-0.773,2.319-1.434,3.644-1.875c2.65-1.217,5.631-1.658,8.721-1.324c7.951,0.77,14.134,6.512,16.011,13.801
									c0.662,2.205,0.883,4.525,0.662,6.844c-0.992,10.268-10.269,17.664-20.537,16.673c-3.976-0.443-7.508-1.99-10.268-4.417
									C3163.989,1174.984,3161.449,1169.021,3162.113,1162.727z"/>
							</g>
							<polygon style="fill:#F24B46;" points="3193.012,1154.988 3179.582,1175.882 3161.589,1124.159 3181.154,1160.67 							"/>
						</g>
						<g>
							<g>
								<path style="fill:#CF5FE0;" d="M3170.504,1263.426c11.703,1.216,22.083-7.287,23.297-18.88
									c1.215-11.595-7.288-22.083-18.881-23.299c-3.642-0.332-7.065,0.222-10.267,1.433c-1.107,0.557-2.319,1.105-3.315,1.768
									c-5.3,3.424-9.053,9.055-9.716,15.789C3150.408,1251.831,3158.911,1262.321,3170.504,1263.426z M3154.053,1240.459
									c0.55-5.741,3.752-10.599,8.17-13.581c1.103-0.774,2.319-1.438,3.643-1.876c2.65-1.106,5.631-1.547,8.72-1.217
									c10.271,0.996,17.78,10.271,16.784,20.54c-1.104,10.267-10.268,17.775-20.537,16.672
									C3160.566,1259.891,3153.057,1250.726,3154.053,1240.459z"/>
							</g>
							<polygon style="fill:#F24B46;" points="3184.978,1232.735 3171.547,1253.629 3153.552,1201.907 3173.119,1238.416 							"/>
						</g>
						<g>
							<g>
								<path style="fill:#CF5FE0;" d="M3162.444,1341.269c11.703,1.103,22.083-7.289,23.297-18.993
									c1.215-11.592-7.288-22.083-18.882-23.296c-11.594-1.214-22.083,7.286-23.297,18.99
									C3142.348,1329.564,3150.85,1340.053,3162.444,1341.269z M3146.101,1318.192c0.994-10.268,10.269-17.778,20.536-16.674
									c10.27,0.995,17.669,10.268,16.674,20.537c-1.104,10.27-10.268,17.777-20.537,16.675
									C3152.505,1337.623,3144.997,1328.459,3146.101,1318.192z"/>
							</g>
						</g>
						<g>
							<path style="fill:#CF5FE0;" d="M2929.067,1135.259l199.674,20.636c2.022,0.21,3.848-1.274,4.056-3.297l0.085-0.813
								c0.209-2.023-1.275-3.847-3.298-4.057l-199.673-20.636c-2.023-0.209-3.848,1.275-4.058,3.297l-0.083,0.813
								C2925.561,1133.225,2927.045,1135.05,2929.067,1135.259z"/>
							<path style="fill:#CF5FE0;" d="M2927.565,1149.798l199.673,20.637c2.023,0.208,3.848-1.275,4.057-3.297l0.084-0.814
								c0.208-2.022-1.275-3.848-3.297-4.057l-199.673-20.636c-2.024-0.209-3.849,1.275-4.058,3.298l-0.084,0.813
								C2924.058,1147.763,2925.542,1149.589,2927.565,1149.798z"/>
						</g>
						<g>
							<path style="fill:#CF5FE0;" d="M2921.019,1213.138l199.673,20.636c2.022,0.209,3.848-1.275,4.057-3.298l0.084-0.813
								c0.21-2.022-1.274-3.848-3.298-4.057l-199.673-20.635c-2.022-0.208-3.847,1.275-4.056,3.297l-0.085,0.814
								C2917.513,1211.103,2918.997,1212.929,2921.019,1213.138z"/>
							<path style="fill:#CF5FE0;" d="M2919.516,1227.677l199.674,20.635c2.021,0.209,3.847-1.275,4.057-3.297l0.083-0.813
								c0.209-2.023-1.274-3.848-3.297-4.058l-199.673-20.635c-2.023-0.209-3.848,1.274-4.057,3.297l-0.084,0.812
								C2916.01,1225.643,2917.493,1227.468,2919.516,1227.677z"/>
						</g>
						<g>
							<path style="fill:#CF5FE0;" d="M2912.97,1291.016l199.674,20.637c2.022,0.209,3.847-1.275,4.056-3.297l0.084-0.814
								c0.21-2.022-1.274-3.847-3.297-4.056l-199.673-20.637c-2.022-0.209-3.848,1.274-4.058,3.298l-0.083,0.813
								C2909.464,1288.982,2910.948,1290.808,2912.97,1291.016z"/>
							<path style="fill:#CF5FE0;" d="M2911.468,1305.556l199.673,20.636c2.022,0.209,3.848-1.274,4.057-3.298l0.084-0.812
								c0.209-2.023-1.275-3.849-3.297-4.057l-199.673-20.637c-2.024-0.208-3.848,1.275-4.058,3.297l-0.084,0.814
								C2907.961,1303.521,2909.445,1305.347,2911.468,1305.556z"/>
						</g>
					</g>
				</g>
				<g>
					<path style="fill:#FF9792;" d="M2877.569,868.251c0,0-54.198-48.158-89.749-20.827
						c-35.551,27.332,79.979,115.368,79.979,115.368L2877.569,868.251z"/>
					<path style="fill:#FF9792;" d="M2814.864,1065.904l62.983,34.84c18.258,10.1,41.46,3.426,51.561-14.833l10.288-18.597
						c10.1-18.258,3.425-41.46-14.834-51.561l-62.982-34.84c-18.259-10.101-41.461-3.425-51.562,14.833l-10.287,18.596
						C2789.93,1032.601,2796.605,1055.803,2814.864,1065.904z"/>
					<path style="fill:#FF9792;" d="M2803.958,1171.428l62.982,34.841c18.258,10.101,41.461,3.426,51.562-14.833l10.287-18.597
						c10.1-18.259,3.425-41.46-14.833-51.561l-62.983-34.84c-18.259-10.101-41.461-3.426-51.561,14.833l-10.287,18.597
						C2779.025,1138.127,2785.7,1161.329,2803.958,1171.428z"/>
					<path style="fill:#FF9792;" d="M2793.347,1274.103l62.982,34.841c18.258,10.1,41.461,3.425,51.562-14.833l10.286-18.597
						c10.101-18.259,3.426-41.461-14.833-51.561l-62.983-34.841c-18.258-10.099-41.46-3.425-51.561,14.834l-10.287,18.596
						C2768.413,1240.8,2775.088,1264.003,2793.347,1274.103z"/>
					<path style="fill:#F7AAAA;" d="M2936.722,1042.424c-9.774-7.352-23.109-16.601-35.32-22.433
						c-8.447-4.034-18.55-1.141-23.357,6.893l-13.81,23.078c-4.791,8.009-2.323,18.397,5.62,23.294
						c9.755,6.015,23.468,13.865,37.502,19.931c9.839,4.252,21.309,0.306,26.578-9.028l8.384-14.858
						C2947.458,1060.192,2945.079,1048.71,2936.722,1042.424z"/>
					<path style="fill:#F7AAAA;" d="M2925.515,1150.856c-9.772-7.352-23.108-16.6-35.319-22.43
						c-8.448-4.036-18.551-1.141-23.357,6.892l-13.808,23.079c-4.792,8.007-2.323,18.396,5.62,23.293
						c9.754,6.015,23.467,13.865,37.502,19.93c9.838,4.252,21.308,0.307,26.576-9.028l8.384-14.858
						C2936.252,1168.626,2933.873,1157.143,2925.515,1150.856z"/>
					<path style="fill:#F7AAAA;" d="M2913.015,1252.486c-9.774-7.352-23.109-16.6-35.319-22.432
						c-8.447-4.035-18.551-1.142-23.357,6.892l-13.809,23.079c-4.791,8.006-2.324,18.396,5.618,23.293
						c9.755,6.015,23.468,13.865,37.502,19.931c9.84,4.251,21.31,0.306,26.578-9.028l8.384-14.858
						C2923.752,1270.254,2921.373,1258.773,2913.015,1252.486z"/>
				</g>
			</g>
			<g>
				<polygon style="fill:#B1C9F6;" points="2572.381,1589.178 2426.783,1612.089 2522.652,1544.704 2527.88,1565.789 
					2563.454,1571.703 				"/>
				<polygon style="fill:#FFFFFF;" points="2426.783,1612.089 2547.293,1547.744 2666.202,1540.046 				"/>
				<polygon style="fill:#FFFFFF;" points="2522.652,1544.704 2426.783,1612.089 2500.25,1507.874 				"/>
			</g>
			<g>
				<polygon style="fill:#B1C9F6;" points="2736.115,706.112 2849.19,647.848 2748.077,649.791 2755.183,667.14 2733.426,689.392 
									"/>
				<polygon style="fill:#DFDCF7;" points="2849.19,647.848 2732.467,664.469 2645.734,719.722 				"/>
				<polygon style="fill:#DFDCF7;" points="2748.077,649.791 2849.19,647.848 2744.904,612.722 				"/>
			</g>
		</g>
	</g>
</g>
</svg>
